<svg preserveAspectRatio="none" width="100%" height="100%" overflow="visible" style="display: block;" viewBox="0 0 100 31.9694" fill="none" xmlns="http://www.w3.org/2000/svg">
<g id="BARC - white">
<path id="Path 106823" d="M100 0.563218C98.7986 0.233636 97.5618 0.0506388 96.3165 0.0182181C91.3737 -0.188532 87.2767 1.37147 83.988 4.34072C80.6992 7.30997 79.1777 11.1065 79.1027 15.7107C79.0277 20.315 80.4182 24.149 83.5945 27.2312C86.7707 30.3135 90.83 31.892 95.7727 31.9672C97.0572 31.9854 98.3405 31.885 99.6065 31.6672V27.0242C98.3285 27.2685 97.2565 27.1742 95.8477 27.1557C92.5026 27.0994 89.7399 25.9843 87.5597 23.8105C85.3797 21.6492 84.3085 18.9617 84.3647 15.7855C84.4211 12.6281 85.5737 9.99705 87.8227 7.89222C90.0777 5.78772 92.8777 4.69772 96.2227 4.82922C97.4982 4.87092 98.765 5.0537 100 5.37422L100 0.563218Z" fill="var(--fill-0, black)"/>
<path id="Path 106824" d="M31.0655 22.8145L39.8797 15.9737L36.6285 6.82122L31.0655 22.8145ZM22.646 31.3467L33.8092 0.600718H39.3343L50.911 31.3467H45.836L41.6263 20.7467L27.9263 31.3467H22.646Z" fill="var(--fill-0, black)"/>
<path id="Path 106825" d="M69.16 8.98272C69.16 10.2795 68.7277 11.2942 67.8445 12.0272C66.98 12.779 66.059 13.1547 64.161 13.1547H59.8203V4.81047H64.1615C66.0597 4.82922 66.9805 5.18547 67.845 5.93797C68.7283 6.67097 69.1605 7.70447 69.1605 8.98247M72.1488 15.3535C73.7085 13.9252 74.4987 12.0082 74.4987 9.56497C74.4987 6.87747 73.5778 4.69747 71.7173 3.06247C69.8568 1.42747 67.47 0.600468 64.5005 0.600468L54.6702 0.544468V31.347H59.8203V17.8345H61.8875L71.9985 31.347H78.2002L67.8252 17.6277C69.6482 17.2707 70.8885 16.5002 72.1478 15.3527" fill="var(--fill-0, black)"/>
<path id="Path 106826" d="M5.20575 17.3645H9.6035C12.0285 17.3457 13.381 17.5712 14.4897 18.511C15.655 19.601 16.1435 20.3152 16.2375 22.0442C16.3021 22.7979 16.1739 23.5557 15.8649 24.2461C15.5558 24.9366 15.0761 25.5371 14.471 25.991C13.2682 26.893 12.4413 27.1562 9.6035 27.1562H5.20575V17.3645ZM5.20575 4.73522H9.02075C11.1632 4.71647 12.3848 4.92322 13.3245 5.67497C14.2078 6.42672 14.7528 7.38522 14.7528 8.88872C14.7528 10.2042 14.3027 11.2755 13.3807 12.0637C12.4587 12.852 10.975 13.2487 8.908 13.2487H5.20575V4.73522ZM10.1485 31.422C11.6628 31.4318 13.1722 31.2487 14.6403 30.877C15.9273 30.5553 17.1399 29.9873 18.211 29.2045C19.2043 28.4541 20.0089 27.4824 20.561 26.3667C21.1513 25.1097 21.4405 23.7325 21.4058 22.3442C21.4058 20.2582 20.8808 18.6232 19.8083 17.4015C18.7637 16.1851 17.3523 15.3409 15.7865 14.996V14.808C17.0709 14.3383 18.1399 13.4165 18.7935 12.2152C19.5063 10.9614 19.8758 9.54172 19.8647 8.09947C19.8647 6.67122 19.6018 5.48722 19.0755 4.50997C18.564 3.54507 17.8046 2.73391 16.8755 2.15997C15.8593 1.53841 14.7391 1.1057 13.569 0.882718C12.1912 0.592582 10.7859 0.453925 9.378 0.469218H0V31.422H10.1485Z" fill="var(--fill-0, black)"/>
</g>
</svg>
