<svg preserveAspectRatio="none" width="100%" height="100%" overflow="visible" style="display: block;" viewBox="0 0 240 240" fill="none" xmlns="http://www.w3.org/2000/svg">
<g id="Group 55006">
<g id="Ellipse 10">
<mask id="path-1-inside-1_10491_515" fill="white">
<path d="M0 120C-1.37766e-06 135.759 3.10389 151.363 9.13445 165.922C15.165 180.481 24.0042 193.71 35.1472 204.853C46.2902 215.996 59.5189 224.835 74.078 230.866C88.6371 236.896 104.241 240 120 240C135.759 240 151.363 236.896 165.922 230.866C180.481 224.835 193.71 215.996 204.853 204.853C215.996 193.71 224.835 180.481 230.866 165.922C236.896 151.363 240 135.759 240 120L120 120L0 120Z"/>
</mask>
<path d="M0 120C-1.37766e-06 135.759 3.10389 151.363 9.13445 165.922C15.165 180.481 24.0042 193.71 35.1472 204.853C46.2902 215.996 59.5189 224.835 74.078 230.866C88.6371 236.896 104.241 240 120 240C135.759 240 151.363 236.896 165.922 230.866C180.481 224.835 193.71 215.996 204.853 204.853C215.996 193.71 224.835 180.481 230.866 165.922C236.896 151.363 240 135.759 240 120L120 120L0 120Z" fill="url(#paint0_linear_10491_515)" fill-opacity="0.5" stroke="url(#paint1_linear_10491_515)" mask="url(#path-1-inside-1_10491_515)"/>
</g>
<g id="Ellipse 11">
<mask id="path-2-inside-2_10491_515" fill="white">
<path d="M73.3603 230.566C93.93 239.242 116.512 242.009 138.568 238.555C160.624 235.1 181.279 225.562 198.211 211.011L120 120L73.3603 230.566Z"/>
</mask>
<path d="M73.3603 230.566C93.93 239.242 116.512 242.009 138.568 238.555C160.624 235.1 181.279 225.562 198.211 211.011L120 120L73.3603 230.566Z" fill="url(#paint2_linear_10491_515)" stroke="url(#paint3_linear_10491_515)" mask="url(#path-2-inside-2_10491_515)"/>
</g>
<g id="Ellipse 9">
<mask id="path-3-inside-3_10491_515" fill="white">
<path d="M0 120C-2.06802e-06 143.655 6.99153 166.783 20.0961 186.477C33.2006 206.171 51.8335 221.552 73.6534 230.689L120 120L0 120Z"/>
</mask>
<path d="M0 120C-2.06802e-06 143.655 6.99153 166.783 20.0961 186.477C33.2006 206.171 51.8335 221.552 73.6534 230.689L120 120L0 120Z" fill="url(#paint4_linear_10491_515)" stroke="url(#paint5_linear_10491_515)" stroke-width="2" mask="url(#path-3-inside-3_10491_515)"/>
</g>
</g>
<defs>
<linearGradient id="paint0_linear_10491_515" x1="225.5" y1="174" x2="120" y2="120" gradientUnits="userSpaceOnUse">
<stop stop-color="#9BFFCF"/>
<stop offset="1" stop-color="#43A877"/>
</linearGradient>
<linearGradient id="paint1_linear_10491_515" x1="228" y1="170" x2="220.5" y2="166.5" gradientUnits="userSpaceOnUse">
<stop stop-color="white"/>
<stop offset="1" stop-opacity="0"/>
</linearGradient>
<linearGradient id="paint2_linear_10491_515" x1="142.5" y1="231" x2="120" y2="120" gradientUnits="userSpaceOnUse">
<stop stop-color="#6821A9"/>
<stop offset="1" stop-color="#290D43"/>
</linearGradient>
<linearGradient id="paint3_linear_10491_515" x1="128.5" y1="240" x2="127" y2="231.5" gradientUnits="userSpaceOnUse">
<stop stop-color="white"/>
<stop offset="1" stop-color="white" stop-opacity="0"/>
</linearGradient>
<linearGradient id="paint4_linear_10491_515" x1="26" y1="198.5" x2="114" y2="127" gradientUnits="userSpaceOnUse">
<stop stop-color="#F05E63"/>
<stop offset="1" stop-color="#CA3B83"/>
</linearGradient>
<linearGradient id="paint5_linear_10491_515" x1="21.5" y1="190.5" x2="30.5" y2="184" gradientUnits="userSpaceOnUse">
<stop stop-color="white"/>
<stop offset="1" stop-color="white" stop-opacity="0"/>
</linearGradient>
</defs>
</svg>
