<svg preserveAspectRatio="none" width="100%" height="100%" overflow="visible" style="display: block;" viewBox="0 0 139.902 139.902" fill="none" xmlns="http://www.w3.org/2000/svg">
<g id="Group 1000001739" opacity="0.5">
<g id="Ellipse 705" filter="url(#filter0_f_10491_524)">
<circle cx="69.9509" cy="69.9509" r="30.9549" fill="var(--fill-0, #FFB26C)" fill-opacity="0.2"/>
</g>
<g id="Ellipse 10">
<mask id="path-2-inside-1_10491_524" fill="white">
<path d="M49.2397 95.9003C54.4111 100.034 60.7266 102.48 67.3329 102.909C73.9392 103.338 80.518 101.729 86.1807 98.3C91.8434 94.8705 96.3171 89.7857 98.9974 83.7323C101.678 77.6789 102.436 70.9488 101.169 64.4509L69.4291 70.6399L49.2397 95.9003Z"/>
</mask>
<path d="M49.2397 95.9003C54.4111 100.034 60.7266 102.48 67.3329 102.909C73.9392 103.338 80.518 101.729 86.1807 98.3C91.8434 94.8705 96.3171 89.7857 98.9974 83.7323C101.678 77.6789 102.436 70.9488 101.169 64.4509L69.4291 70.6399L49.2397 95.9003Z" fill="url(#paint0_linear_10491_524)" stroke="url(#paint1_linear_10491_524)" stroke-width="0.666613" mask="url(#path-2-inside-1_10491_524)"/>
</g>
<foreignObject x="34.5254" y="42.1007" width="37.4702" height="56.3648"><div xmlns="http://www.w3.org/1999/xhtml" style="backdrop-filter:blur(1.28px);clip-path:url(#bgblur_0_10491_524_clip_path);height:100%;width:100%"></div></foreignObject><g id="Ellipse 11" data-figma-bg-blur-radius="2.56646">
<mask id="path-3-inside-2_10491_524" fill="white">
<path d="M50.1647 44.6671C46.1886 47.6163 42.9426 51.439 40.677 55.8407C38.4114 60.2423 37.1867 65.1054 37.0971 70.0551C37.0076 75.0048 38.0557 79.909 40.1607 84.3897C42.2656 88.8704 45.3712 92.8079 49.2381 95.899L69.4291 70.6399L50.1647 44.6671Z"/>
</mask>
<path d="M50.1647 44.6671C46.1886 47.6163 42.9426 51.439 40.677 55.8407C38.4114 60.2423 37.1867 65.1054 37.0971 70.0551C37.0076 75.0048 38.0557 79.909 40.1607 84.3897C42.2656 88.8704 45.3712 92.8079 49.2381 95.899L69.4291 70.6399L50.1647 44.6671Z" fill="url(#paint2_linear_10491_524)" stroke="url(#paint3_linear_10491_524)" stroke-width="0.666613" mask="url(#path-3-inside-2_10491_524)"/>
</g>
<g id="Ellipse 9" filter="url(#filter2_d_10491_524)">
<mask id="path-4-inside-3_10491_524" fill="white">
<path d="M102.778 60.9084C101.727 55.5514 99.336 50.5477 95.8292 46.3638C92.3223 42.1799 87.8133 38.9519 82.7224 36.9807C77.6315 35.0095 72.1244 34.3593 66.7144 35.0905C61.3044 35.8218 56.1676 37.9108 51.7827 41.1629L71.0461 67.1364L102.778 60.9084Z"/>
</mask>
<path d="M102.778 60.9084C101.727 55.5514 99.336 50.5477 95.8292 46.3638C92.3223 42.1799 87.8133 38.9519 82.7224 36.9807C77.6315 35.0095 72.1244 34.3593 66.7144 35.0905C61.3044 35.8218 56.1676 37.9108 51.7827 41.1629L71.0461 67.1364L102.778 60.9084Z" fill="url(#paint4_linear_10491_524)"/>
<path d="M102.778 60.9084C101.727 55.5514 99.336 50.5477 95.8292 46.3638C92.3223 42.1799 87.8133 38.9519 82.7224 36.9807C77.6315 35.0095 72.1244 34.3593 66.7144 35.0905C61.3044 35.8218 56.1676 37.9108 51.7827 41.1629L71.0461 67.1364L102.778 60.9084Z" stroke="url(#paint5_linear_10491_524)" stroke-width="0.666613" mask="url(#path-4-inside-3_10491_524)"/>
</g>
</g>
<defs>
<filter id="filter0_f_10491_524" x="0" y="0" width="139.902" height="139.902" filterUnits="userSpaceOnUse" color-interpolation-filters="sRGB">
<feFlood flood-opacity="0" result="BackgroundImageFix"/>
<feBlend mode="normal" in="SourceGraphic" in2="BackgroundImageFix" result="shape"/>
<feGaussianBlur stdDeviation="19.498" result="effect1_foregroundBlur_10491_524"/>
</filter>
<clipPath id="bgblur_0_10491_524_clip_path" transform="translate(-34.5254 -42.1007)"><path d="M50.1647 44.6671C46.1886 47.6163 42.9426 51.439 40.677 55.8407C38.4114 60.2423 37.1867 65.1054 37.0971 70.0551C37.0076 75.0048 38.0557 79.909 40.1607 84.3897C42.2656 88.8704 45.3712 92.8079 49.2381 95.899L69.4291 70.6399L50.1647 44.6671Z"/>
</clipPath><filter id="filter2_d_10491_524" x="43.55" y="32.8992" width="62.1277" height="43.4697" filterUnits="userSpaceOnUse" color-interpolation-filters="sRGB">
<feFlood flood-opacity="0" result="BackgroundImageFix"/>
<feColorMatrix in="SourceAlpha" type="matrix" values="0 0 0 0 0 0 0 0 0 0 0 0 0 0 0 0 0 0 127 0" result="hardAlpha"/>
<feOffset dx="-2.66645" dy="3.66637"/>
<feGaussianBlur stdDeviation="2.78311"/>
<feComposite in2="hardAlpha" operator="out"/>
<feColorMatrix type="matrix" values="0 0 0 0 0.150814 0 0 0 0 0.076614 0 0 0 0 0.00819608 0 0 0 1 0"/>
<feBlend mode="normal" in2="BackgroundImageFix" result="effect1_dropShadow_10491_524"/>
<feBlend mode="normal" in="SourceGraphic" in2="effect1_dropShadow_10491_524" result="shape"/>
</filter>
<linearGradient id="paint0_linear_10491_524" x1="85.2018" y1="98.539" x2="69.4374" y2="70.6481" gradientUnits="userSpaceOnUse">
<stop stop-color="#E73F76"/>
<stop offset="1" stop-color="#B01346"/>
</linearGradient>
<linearGradient id="paint1_linear_10491_524" x1="88.705" y1="98.1348" x2="81.6986" y2="89.5115" gradientUnits="userSpaceOnUse">
<stop stop-color="white"/>
<stop offset="1" stop-opacity="0"/>
</linearGradient>
<linearGradient id="paint2_linear_10491_524" x1="39.5254" y1="60.0037" x2="69.4374" y2="72.1302" gradientUnits="userSpaceOnUse">
<stop stop-color="#4E72FE"/>
<stop offset="1" stop-color="#2F4498"/>
</linearGradient>
<linearGradient id="paint3_linear_10491_524" x1="58.3187" y1="73.8519" x2="26.9947" y2="69.8397" gradientUnits="userSpaceOnUse">
<stop stop-opacity="0"/>
<stop offset="1" stop-color="white"/>
</linearGradient>
<linearGradient id="paint4_linear_10491_524" x1="71.0544" y1="65.9319" x2="83.0461" y2="37.9063" gradientUnits="userSpaceOnUse">
<stop stop-color="#C2752E"/>
<stop offset="1" stop-color="#FFB26C"/>
</linearGradient>
<linearGradient id="paint5_linear_10491_524" x1="81.4292" y1="36.6937" x2="79.8124" y2="42.7569" gradientUnits="userSpaceOnUse">
<stop stop-color="white"/>
<stop offset="1" stop-color="#666666" stop-opacity="0"/>
</linearGradient>
</defs>
</svg>
