<svg preserveAspectRatio="none" width="100%" height="100%" overflow="visible" style="display: block;" viewBox="0 0 724.678 396.35" fill="none" xmlns="http://www.w3.org/2000/svg">
<g id="Frame 3467969">
<rect width="724.678" height="396.35" rx="21.4243" fill="var(--fill-0, black)" fill-opacity="0.6"/>
<rect id="image 66" x="5.35608" y="5.35616" width="713.966" height="385.638" rx="18" fill="var(--fill-0, white)"/>
<g id="Text">
<path d="M315.775 205.381L311 191.084H314.418L317.816 202.06L321.225 191.084H324.262L319.496 205.381H315.775Z" fill="var(--fill-0, #262626)"/>
<path d="M325.59 191.894C325.59 190.977 326.322 190.342 327.23 190.342C328.148 190.342 328.891 190.996 328.891 191.924C328.891 192.852 328.139 193.496 327.25 193.496C326.342 193.496 325.59 192.832 325.59 191.894ZM325.805 205.381V194.941H328.686V205.381H325.805Z" fill="var(--fill-0, #262626)"/>
<path d="M338.832 205.381V203.643C338.197 204.883 336.742 205.605 335.375 205.605C332.201 205.605 330.736 203.027 330.736 200.234C330.736 197.305 332.348 194.678 335.414 194.678C336.82 194.678 338.129 195.234 338.832 196.484V190.185H341.713V205.381H338.832ZM336.273 203.34C338.217 203.34 338.91 201.787 338.91 200.068C338.91 198.34 338.207 196.904 336.293 196.904C334.281 196.904 333.695 198.486 333.695 200.244C333.695 201.885 334.398 203.34 336.273 203.34Z" fill="var(--fill-0, #262626)"/>
<path d="M351.742 202.197L353.881 203.144C353.07 205.029 351.01 205.605 349.223 205.605C345.766 205.605 343.666 203.467 343.666 200.117C343.666 196.982 345.893 194.678 349.066 194.678C351.098 194.678 352.924 195.615 353.705 197.529C354.145 198.603 354.145 199.707 354.145 200.801H346.605C346.684 202.412 347.494 203.545 349.203 203.545C350.336 203.545 351.195 203.252 351.742 202.197ZM346.645 199.023H351.322C351.244 197.588 350.551 196.68 349.105 196.68C347.602 196.68 346.83 197.676 346.645 199.023Z" fill="var(--fill-0, #262626)"/>
<path d="M355.404 200.185C355.404 196.894 357.748 194.678 360.98 194.678C364.223 194.678 366.42 196.914 366.42 200.137C366.42 203.437 364.105 205.605 360.873 205.605C357.611 205.605 355.404 203.389 355.404 200.185ZM360.941 203.398C362.904 203.398 363.48 201.777 363.48 200.176C363.48 198.428 362.797 196.885 360.893 196.885C358.949 196.885 358.363 198.506 358.363 200.127C358.363 201.875 359.037 203.398 360.941 203.398Z" fill="var(--fill-0, #262626)"/>
<path d="M372.758 205.381V190.185H375.658V196.582C376.332 195.293 377.758 194.678 379.203 194.678C381.625 194.678 382.777 196.416 382.777 198.721V205.381H379.877V199.141C379.877 197.803 379.203 197.041 377.875 197.041C376.41 197.041 375.658 197.959 375.658 199.346V205.381H372.758Z" fill="var(--fill-0, #262626)"/>
<path d="M392.699 202.197L394.838 203.144C394.027 205.029 391.967 205.605 390.18 205.605C386.723 205.605 384.623 203.467 384.623 200.117C384.623 196.982 386.85 194.678 390.023 194.678C392.055 194.678 393.881 195.615 394.662 197.529C395.102 198.603 395.102 199.707 395.102 200.801H387.562C387.641 202.412 388.451 203.545 390.16 203.545C391.293 203.545 392.152 203.252 392.699 202.197ZM387.602 199.023H392.279C392.201 197.588 391.508 196.68 390.062 196.68C388.559 196.68 387.787 197.676 387.602 199.023Z" fill="var(--fill-0, #262626)"/>
<path d="M396.996 205.381V194.922H399.896V196.924C400.59 195.469 401.674 194.766 403.275 194.766V197.461C401.381 197.461 399.896 197.969 399.896 200.137V205.381H396.996Z" fill="var(--fill-0, #262626)"/>
<path d="M411.977 202.197L414.115 203.144C413.305 205.029 411.244 205.605 409.457 205.605C406 205.605 403.9 203.467 403.9 200.117C403.9 196.982 406.127 194.678 409.301 194.678C411.332 194.678 413.158 195.615 413.939 197.529C414.379 198.603 414.379 199.707 414.379 200.801H406.84C406.918 202.412 407.729 203.545 409.438 203.545C410.57 203.545 411.43 203.252 411.977 202.197ZM406.879 199.023H411.557C411.479 197.588 410.785 196.68 409.34 196.68C407.836 196.68 407.064 197.676 406.879 199.023Z" fill="var(--fill-0, #262626)"/>
</g>
</g>
</svg>
