<svg preserveAspectRatio="none" width="100%" height="100%" overflow="visible" style="display: block;" viewBox="0 0 29 32" fill="none" xmlns="http://www.w3.org/2000/svg">
<g id="Hand-drawn accents">
<g id="Vector">
<path fill-rule="evenodd" clip-rule="evenodd" d="M9.564 29.5973C6.83459 28.8276 3.97698 28.4393 1.20492 28.0836C0.607865 28.009 0.0535368 28.4251 0.0108898 29.0114C-0.0744044 29.5981 0.352316 30.1347 0.906728 30.2093C3.59349 30.5517 6.3653 30.9181 8.96677 31.6591C9.52118 31.8198 10.1185 31.489 10.2891 30.9198C10.4597 30.3511 10.1184 29.7584 9.564 29.5973Z" fill="url(#paint0_linear_10491_512)"/>
<path fill-rule="evenodd" clip-rule="evenodd" d="M17.8372 18.6846C13.4445 14.1798 8.49747 10.255 4.19012 5.62941C3.80629 5.19741 3.12394 5.17427 2.69747 5.57756C2.271 5.98127 2.22852 6.66013 2.65499 7.09213C6.96234 11.731 11.9094 15.6687 16.302 20.1867C16.7285 20.6084 17.4107 20.6144 17.8372 20.1996C18.221 19.7851 18.2636 19.1063 17.8372 18.6846Z" fill="url(#paint1_linear_10491_512)"/>
<path fill-rule="evenodd" clip-rule="evenodd" d="M26.069 1.35785C26.197 3.93613 26.3247 6.51442 26.4526 9.09313C26.4526 9.6837 26.9646 10.1397 27.5617 10.111C28.1588 10.0818 28.585 9.57913 28.585 8.98813C28.457 6.40556 28.3293 3.82342 28.2014 1.24128C28.1588 0.650704 27.6469 0.197704 27.0498 0.229847C26.4954 0.26199 26.0264 0.767705 26.069 1.35785Z" fill="url(#paint2_linear_10491_512)"/>
</g>
</g>
<defs>
<linearGradient id="paint0_linear_10491_512" x1="14.2925" y1="0.228237" x2="14.2925" y2="31.6997" gradientUnits="userSpaceOnUse">
<stop stop-color="white"/>
<stop offset="1" stop-color="#999999"/>
</linearGradient>
<linearGradient id="paint1_linear_10491_512" x1="14.2925" y1="0.228237" x2="14.2925" y2="31.6997" gradientUnits="userSpaceOnUse">
<stop stop-color="white"/>
<stop offset="1" stop-color="#999999"/>
</linearGradient>
<linearGradient id="paint2_linear_10491_512" x1="14.2925" y1="0.228237" x2="14.2925" y2="31.6997" gradientUnits="userSpaceOnUse">
<stop stop-color="white"/>
<stop offset="1" stop-color="#999999"/>
</linearGradient>
</defs>
</svg>
