<svg preserveAspectRatio="none" width="100%" height="100%" overflow="visible" style="display: block;" viewBox="0 0 254 236.863" fill="none" xmlns="http://www.w3.org/2000/svg">
<g id="Group 11">
<g id="Ellipse 482">
<circle cx="200.576" cy="95.7611" r="1.1399" fill="var(--fill-0, white)" fill-opacity="0.3"/>
<circle cx="200.576" cy="95.7611" r="0.705964" stroke="url(#paint0_linear_10380_14059)" stroke-opacity="0.1" stroke-width="0.86787"/>
</g>
<g id="Ellipse 527">
<circle cx="163.762" cy="153.104" r="1.1399" fill="var(--fill-0, white)" fill-opacity="0.3"/>
<circle cx="163.762" cy="153.104" r="0.705964" stroke="url(#paint1_linear_10380_14059)" stroke-opacity="0.1" stroke-width="0.86787"/>
</g>
<g id="Ellipse 695">
<circle cx="112.956" cy="190.108" r="1.70985" fill="var(--fill-0, white)" fill-opacity="0.3"/>
<circle cx="112.956" cy="190.108" r="1.00388" stroke="url(#paint2_linear_10380_14059)" stroke-opacity="0.1" stroke-width="1.41193"/>
</g>
<g id="Ellipse 709">
<circle cx="178.979" cy="199.647" r="1.70985" fill="var(--fill-0, white)" fill-opacity="0.1"/>
<circle cx="178.979" cy="199.647" r="1.00388" stroke="url(#paint3_linear_10380_14059)" stroke-opacity="0.1" stroke-width="1.41193"/>
</g>
<g id="Ellipse 720">
<circle cx="1.70985" cy="153.921" r="1.70985" fill="var(--fill-0, white)" fill-opacity="0.1"/>
<circle cx="1.70985" cy="153.921" r="1.00388" stroke="url(#paint4_linear_10380_14059)" stroke-opacity="0.1" stroke-width="1.41193"/>
</g>
<g id="Ellipse 721">
<circle cx="166.412" cy="1.70987" r="1.70985" fill="var(--fill-0, white)" fill-opacity="0.3"/>
<circle cx="166.412" cy="1.70987" r="1.00388" stroke="url(#paint5_linear_10380_14059)" stroke-opacity="0.1" stroke-width="1.41193"/>
</g>
<g id="Ellipse 727">
<circle cx="78.6316" cy="31.7264" r="1.70985" fill="var(--fill-0, white)" fill-opacity="0.7"/>
<circle cx="78.6316" cy="31.7264" r="1.00388" stroke="url(#paint6_linear_10380_14059)" stroke-opacity="0.1" stroke-width="1.41193"/>
</g>
<g id="Ellipse 728">
<circle cx="240.066" cy="133.651" r="1.70985" fill="var(--fill-0, white)" fill-opacity="0.3"/>
<circle cx="240.066" cy="133.651" r="1.00388" stroke="url(#paint7_linear_10380_14059)" stroke-opacity="0.1" stroke-width="1.41193"/>
</g>
<circle id="Ellipse 380" cx="59.0397" cy="152.171" r="0.569579" fill="var(--fill-0, white)" fill-opacity="0.6"/>
<circle id="Ellipse 386" cx="92.3153" cy="221.716" r="0.569579" fill="var(--fill-0, white)" fill-opacity="0.1"/>
<circle id="Ellipse 412" cx="120.395" cy="215.125" r="0.569579" fill="var(--fill-0, white)" fill-opacity="0.15"/>
<circle id="Ellipse 413" cx="202.652" cy="62.9751" r="0.569579" fill="var(--fill-0, white)" fill-opacity="0.3"/>
<circle id="Ellipse 432" cx="129.334" cy="10.0011" r="0.569579" fill="var(--fill-0, white)" fill-opacity="0.1"/>
<circle id="Ellipse 447" cx="144.657" cy="20.8297" r="0.569579" fill="var(--fill-0, white)" fill-opacity="0.1"/>
<circle id="Ellipse 471" cx="10.4663" cy="172.898" r="0.569579" fill="var(--fill-0, white)" fill-opacity="0.1"/>
<circle id="Ellipse 557" cx="158.958" cy="84.6635" r="0.569579" fill="var(--fill-0, white)" fill-opacity="0.7"/>
<circle id="Ellipse 623" cx="212.877" cy="88.6779" r="0.569579" fill="var(--fill-0, white)" fill-opacity="0.1"/>
<circle id="Ellipse 626" cx="31.865" cy="225.256" r="0.569579" fill="var(--fill-0, white)" fill-opacity="0.3"/>
<circle id="Ellipse 627" cx="153.019" cy="184.89" r="0.569579" fill="var(--fill-0, white)" fill-opacity="0.1"/>
<circle id="Ellipse 650" cx="30.2946" cy="236.294" r="0.569579" fill="var(--fill-0, white)" fill-opacity="0.3"/>
<circle id="Ellipse 659" cx="123.618" cy="111.562" r="0.569579" fill="var(--fill-0, white)" fill-opacity="0.3"/>
<circle id="Ellipse 671" cx="86.4868" cy="195.784" r="0.569579" fill="var(--fill-0, white)" fill-opacity="0.15"/>
<circle id="Ellipse 673" cx="253.43" cy="27.3719" r="0.569579" fill="var(--fill-0, white)" fill-opacity="0.15"/>
<circle id="Ellipse 681" cx="27.9565" cy="79.7211" r="0.569579" fill="var(--fill-0, white)" fill-opacity="0.1"/>
<circle id="Ellipse 683" cx="232.356" cy="119.601" r="0.569579" fill="var(--fill-0, white)" fill-opacity="0.3"/>
<circle id="Ellipse 687" cx="217.908" cy="122.986" r="0.569579" fill="var(--fill-0, white)" fill-opacity="0.1"/>
<g id="Polygon 56">
<mask id="path-35-inside-1_10380_14059" fill="white">
<path d="M149.41 35.4257L150.397 37.1355H148.422L149.41 35.4257Z"/>
</mask>
<path d="M149.41 35.4257L150.397 37.1355H148.422L149.41 35.4257Z" fill="var(--fill-0, white)" fill-opacity="0.3"/>
<path d="M149.41 35.4257L150.632 34.7197L149.41 32.6018L148.187 34.7197L149.41 35.4257ZM150.397 37.1355V38.5474H152.842L151.62 36.4295L150.397 37.1355ZM148.422 37.1355L147.2 36.4295L145.977 38.5474H148.422V37.1355ZM149.41 35.4257L148.187 36.1316L149.174 37.8415L150.397 37.1355L151.62 36.4295L150.632 34.7197L149.41 35.4257ZM150.397 37.1355V35.7236H148.422V37.1355V38.5474H150.397V37.1355ZM148.422 37.1355L149.645 37.8415L150.632 36.1316L149.41 35.4257L148.187 34.7197L147.2 36.4295L148.422 37.1355Z" fill="url(#paint8_linear_10380_14059)" fill-opacity="0.1" mask="url(#path-35-inside-1_10380_14059)"/>
</g>
<g id="Star 47">
<mask id="path-37-inside-2_10380_14059" fill="white">
<path d="M202.749 186.665L202.991 187.563L203.889 187.805L202.991 188.047L202.749 188.945L202.508 188.047L201.609 187.805L202.508 187.563L202.749 186.665Z"/>
</mask>
<path d="M202.749 186.665L202.991 187.563L203.889 187.805L202.991 188.047L202.749 188.945L202.508 188.047L201.609 187.805L202.508 187.563L202.749 186.665Z" fill="var(--fill-0, white)" fill-opacity="0.1"/>
<path d="M202.749 186.665L204.113 186.298L202.749 181.234L201.386 186.298L202.749 186.665ZM202.991 187.563L201.628 187.93L201.839 188.715L202.624 188.927L202.991 187.563ZM203.889 187.805L204.256 189.168L209.32 187.805L204.256 186.442L203.889 187.805ZM202.991 188.047L202.624 186.684L201.839 186.895L201.628 187.68L202.991 188.047ZM202.749 188.945L201.386 189.312L202.749 194.376L204.113 189.312L202.749 188.945ZM202.508 188.047L203.871 187.68L203.66 186.895L202.875 186.684L202.508 188.047ZM201.609 187.805L201.242 186.442L196.179 187.805L201.242 189.168L201.609 187.805ZM202.508 187.563L202.875 188.927L203.66 188.715L203.871 187.93L202.508 187.563ZM202.749 186.665L201.386 187.032L201.628 187.93L202.991 187.563L204.355 187.196L204.113 186.298L202.749 186.665ZM202.991 187.563L202.624 188.927L203.522 189.168L203.889 187.805L204.256 186.442L203.358 186.2L202.991 187.563ZM203.889 187.805L203.522 186.442L202.624 186.684L202.991 188.047L203.358 189.41L204.256 189.168L203.889 187.805ZM202.991 188.047L201.628 187.68L201.386 188.578L202.749 188.945L204.113 189.312L204.355 188.414L202.991 188.047ZM202.749 188.945L204.113 188.578L203.871 187.68L202.508 188.047L201.144 188.414L201.386 189.312L202.749 188.945ZM202.508 188.047L202.875 186.684L201.977 186.442L201.609 187.805L201.242 189.168L202.141 189.41L202.508 188.047ZM201.609 187.805L201.977 189.168L202.875 188.927L202.508 187.563L202.141 186.2L201.242 186.442L201.609 187.805ZM202.508 187.563L203.871 187.93L204.113 187.032L202.749 186.665L201.386 186.298L201.144 187.196L202.508 187.563Z" fill="url(#paint9_linear_10380_14059)" fill-opacity="0.1" mask="url(#path-37-inside-2_10380_14059)"/>
</g>
</g>
<defs>
<linearGradient id="paint0_linear_10380_14059" x1="200.576" y1="94.6212" x2="200.576" y2="96.901" gradientUnits="userSpaceOnUse">
<stop stop-color="white" stop-opacity="0"/>
<stop offset="0.495008" stop-color="white"/>
<stop offset="1" stop-color="white" stop-opacity="0"/>
</linearGradient>
<linearGradient id="paint1_linear_10380_14059" x1="163.762" y1="151.964" x2="163.762" y2="154.244" gradientUnits="userSpaceOnUse">
<stop stop-color="white" stop-opacity="0"/>
<stop offset="0.495008" stop-color="white"/>
<stop offset="1" stop-color="white" stop-opacity="0"/>
</linearGradient>
<linearGradient id="paint2_linear_10380_14059" x1="112.956" y1="188.399" x2="112.956" y2="191.818" gradientUnits="userSpaceOnUse">
<stop stop-color="white" stop-opacity="0"/>
<stop offset="0.495008" stop-color="white"/>
<stop offset="1" stop-color="white" stop-opacity="0"/>
</linearGradient>
<linearGradient id="paint3_linear_10380_14059" x1="178.979" y1="197.937" x2="178.979" y2="201.357" gradientUnits="userSpaceOnUse">
<stop stop-color="white" stop-opacity="0"/>
<stop offset="0.495008" stop-color="white"/>
<stop offset="1" stop-color="white" stop-opacity="0"/>
</linearGradient>
<linearGradient id="paint4_linear_10380_14059" x1="1.70985" y1="152.211" x2="1.70985" y2="155.631" gradientUnits="userSpaceOnUse">
<stop stop-color="white" stop-opacity="0"/>
<stop offset="0.495008" stop-color="white"/>
<stop offset="1" stop-color="white" stop-opacity="0"/>
</linearGradient>
<linearGradient id="paint5_linear_10380_14059" x1="166.412" y1="1.77622e-05" x2="166.412" y2="3.41972" gradientUnits="userSpaceOnUse">
<stop stop-color="white" stop-opacity="0"/>
<stop offset="0.495008" stop-color="white"/>
<stop offset="1" stop-color="white" stop-opacity="0"/>
</linearGradient>
<linearGradient id="paint6_linear_10380_14059" x1="78.6316" y1="30.0165" x2="78.6316" y2="33.4362" gradientUnits="userSpaceOnUse">
<stop stop-color="white" stop-opacity="0"/>
<stop offset="0.495008" stop-color="white"/>
<stop offset="1" stop-color="white" stop-opacity="0"/>
</linearGradient>
<linearGradient id="paint7_linear_10380_14059" x1="240.066" y1="131.941" x2="240.066" y2="135.361" gradientUnits="userSpaceOnUse">
<stop stop-color="white" stop-opacity="0"/>
<stop offset="0.495008" stop-color="white"/>
<stop offset="1" stop-color="white" stop-opacity="0"/>
</linearGradient>
<linearGradient id="paint8_linear_10380_14059" x1="149.41" y1="35.4257" x2="149.41" y2="37.7055" gradientUnits="userSpaceOnUse">
<stop stop-color="white" stop-opacity="0"/>
<stop offset="0.495008" stop-color="white"/>
<stop offset="1" stop-color="white" stop-opacity="0"/>
</linearGradient>
<linearGradient id="paint9_linear_10380_14059" x1="202.749" y1="186.665" x2="202.749" y2="188.945" gradientUnits="userSpaceOnUse">
<stop stop-color="white" stop-opacity="0"/>
<stop offset="0.495008" stop-color="white"/>
<stop offset="1" stop-color="white" stop-opacity="0"/>
</linearGradient>
</defs>
</svg>
