<svg preserveAspectRatio="none" width="100%" height="100%" overflow="visible" style="display: block;" viewBox="0 0 186.704 44.4221" fill="none" xmlns="http://www.w3.org/2000/svg">
<g id="Group">
<path id="Vector" d="M24.5974 31.8175C24.3934 32.0215 24.0671 32.2662 23.6184 32.5518C23.1697 32.8373 22.5578 33.1636 21.8235 33.4492C21.0893 33.7347 20.1919 34.0203 19.0905 34.2242C18.0299 34.4282 16.8062 34.5506 15.4193 34.5506C12.7678 34.5506 10.4427 34.1018 8.48467 33.286C6.52667 32.4294 4.93579 31.2464 3.67125 29.6963C2.40671 28.1463 1.4685 26.3514 0.897416 24.271C0.285541 22.1907 0 19.8655 0 17.3773C0 14.889 0.326337 12.5638 0.979004 10.4427C1.63167 8.3215 2.56988 6.48588 3.87521 4.9358C5.13975 3.38571 6.77142 2.16196 8.68863 1.30534C10.6058 0.448713 12.8902 0 15.5008 0C16.7654 0 17.9483 0.12237 18.9681 0.326328C19.9879 0.571079 20.9261 0.815829 21.7012 1.14216C22.4762 1.4685 23.1289 1.79484 23.6184 2.12117C24.1487 2.44751 24.5158 2.77383 24.7605 2.97779C25.0461 3.22254 25.3316 3.54888 25.5356 3.916C25.7396 4.28313 25.8619 4.69104 25.8619 5.09896C25.8619 5.75163 25.6172 6.40429 25.1277 7.05696C24.6382 7.70962 24.1079 8.3215 23.496 8.89258C23.0881 8.48466 22.6394 8.07675 22.1499 7.66883C21.6604 7.26091 21.0893 6.8938 20.4774 6.56746C19.8655 6.24113 19.1721 5.99638 18.3971 5.79242C17.622 5.58846 16.7654 5.46608 15.7864 5.46608C14.1139 5.46608 12.6862 5.79242 11.544 6.48587C10.4019 7.17933 9.50446 8.03596 8.81101 9.13733C8.11755 10.2387 7.62804 11.4625 7.3425 12.8494C7.05696 14.2363 6.8938 15.664 6.8938 17.1325C6.8938 18.6826 7.05696 20.1511 7.3425 21.5788C7.62804 23.0065 8.15834 24.2303 8.89259 25.3316C9.62684 26.433 10.565 27.2896 11.748 27.9423C12.931 28.595 14.3587 28.9213 16.1127 28.9213C17.0509 28.9213 17.8668 28.7989 18.6418 28.595C19.4168 28.3502 20.1103 28.0647 20.6814 27.7383C21.2933 27.412 21.7828 27.0449 22.2315 26.7185C22.6802 26.3514 23.0473 26.0251 23.3328 25.7803C23.5368 26.0251 23.7408 26.3106 24.0263 26.637C24.3118 26.9633 24.5566 27.3304 24.7605 27.6568C25.0053 28.0239 25.1685 28.391 25.3724 28.7581C25.5356 29.1253 25.6172 29.4516 25.6172 29.7371C25.6172 30.1858 25.5356 30.5122 25.3724 30.8385C25.2093 31.1241 24.9237 31.4504 24.5974 31.8175ZM50.0514 28.0239C50.0514 30.6346 50.4185 32.5518 51.1936 33.7347C50.5817 33.9795 50.0514 34.1426 49.5211 34.2242C48.9908 34.3058 48.4605 34.3874 47.8894 34.3874C46.7065 34.3874 45.8091 34.1426 45.1972 33.6939C44.5853 33.2452 44.1774 32.5518 44.0142 31.6951C43.28 32.4702 42.3418 33.1228 41.118 33.6531C39.9351 34.1834 38.4666 34.4282 36.7533 34.4282C35.8559 34.4282 34.9585 34.3058 34.0611 34.0611C33.1636 33.8163 32.3478 33.4084 31.6136 32.8373C30.8793 32.2662 30.3082 31.532 29.8187 30.5938C29.37 29.6556 29.1253 28.5134 29.1253 27.1673C29.1253 25.4948 29.5332 24.1079 30.349 23.0473C31.1648 21.9867 32.1846 21.1709 33.4084 20.559C34.6321 19.9471 35.9783 19.5392 37.3652 19.2945C38.7929 19.0497 40.0982 18.9273 41.2812 18.8458C41.6891 18.805 42.0562 18.805 42.4641 18.805H43.5247V17.9075C43.5247 16.643 43.1984 15.7456 42.5049 15.1745C41.8115 14.6442 40.7101 14.3587 39.2008 14.3587C37.7731 14.3587 36.5086 14.6034 35.4072 15.0521C34.3058 15.5008 33.2044 16.0311 32.1438 16.643C31.6951 16.0719 31.2872 15.4601 31.0425 14.7666C30.7569 14.0731 30.6346 13.5836 30.6346 13.2573C30.6346 12.8086 30.8793 12.3599 31.4096 11.9112C31.9399 11.4625 32.6333 11.0953 33.5308 10.7282C34.4282 10.3611 35.448 10.1163 36.6309 9.87159C37.7731 9.66763 38.9968 9.54525 40.3022 9.54525C42.097 9.54525 43.6063 9.70842 44.8301 10.0755C46.0538 10.4427 47.0736 11.0137 47.8486 11.748C48.6237 12.523 49.1948 13.4612 49.5211 14.6034C49.8474 15.7456 50.0106 17.0917 50.0106 18.601L50.0514 28.0239ZM43.6879 22.2723H42.9944C42.7497 22.2723 42.5457 22.2723 42.301 22.3131C41.4851 22.3946 40.6693 22.4762 39.8535 22.5986C39.0376 22.721 38.3034 22.9657 37.6915 23.2921C37.0796 23.6184 36.5493 24.0671 36.1414 24.5974C35.7335 25.1277 35.5296 25.8211 35.5296 26.637C35.5296 27.5752 35.7743 28.3502 36.3046 29.0029C36.8349 29.6556 37.7323 29.9819 38.9968 29.9819C39.6087 29.9819 40.2206 29.9003 40.7917 29.7371C41.3628 29.574 41.8523 29.37 42.301 29.0845C42.7497 28.7989 43.076 28.5134 43.3208 28.2278C43.5655 27.9015 43.6879 27.616 43.6879 27.3712V22.2723ZM62.4113 12.4823C62.9416 11.8704 63.7574 11.2177 64.8996 10.565C66.0417 9.91238 67.4287 9.58604 69.1419 9.58604C70.3657 9.58604 71.5486 9.79 72.65 10.1979C73.7514 10.6058 74.7304 11.2993 75.587 12.1967C76.4436 13.1349 77.1371 14.3587 77.6266 15.868C78.1569 17.3773 78.4016 19.2537 78.4016 21.4972C78.4016 24.0671 78.1161 26.229 77.5042 27.9015C76.8923 29.574 76.1581 30.9201 75.2199 31.8583C74.2817 32.8373 73.2211 33.5308 72.0789 33.9387C70.9367 34.3466 69.7538 34.5506 68.6116 34.5506C67.6734 34.5506 66.8168 34.4282 66.1233 34.2242C65.4299 34.0203 64.818 33.7755 64.3285 33.49C63.839 33.2452 63.4719 32.9597 63.1863 32.7149C62.9416 32.4702 62.7376 32.2662 62.6968 32.1846V44.4221H55.9254V10.3203C56.0886 10.2795 56.2925 10.2387 56.5373 10.2387C56.7412 10.1979 56.986 10.1979 57.2307 10.1571C57.5163 10.1571 57.8018 10.1163 58.1689 10.1163C59.2703 10.1163 60.2085 10.2795 60.9836 10.6466C61.7178 11.0138 62.2073 11.6256 62.4113 12.4823ZM71.3854 21.6604C71.3854 20.6814 71.3039 19.7432 71.1407 18.8865C70.9775 18.0299 70.692 17.2957 70.3249 16.643C69.9577 16.0311 69.4274 15.5416 68.7748 15.1745C68.1221 14.8074 67.3471 14.6442 66.4089 14.6442C65.0219 14.6442 64.0429 14.9297 63.5126 15.4192C62.9824 15.9495 62.6968 16.5206 62.6968 17.1733V27.7383C62.9416 28.0239 63.4311 28.3094 64.1245 28.6765C64.818 29.0437 65.593 29.2068 66.4904 29.2068C68.1629 29.2068 69.3866 28.5542 70.2025 27.2081C70.9775 25.9027 71.3854 24.0671 71.3854 21.6604ZM83.623 30.2266C83.3782 29.574 83.2558 28.8805 83.1742 28.1463C83.0927 27.412 83.0927 26.6778 83.0927 25.9435V2.89621C83.3374 2.85542 83.5822 2.81462 83.8269 2.81462C84.0717 2.77383 84.3164 2.77384 84.5612 2.73305C84.8059 2.73305 85.0914 2.69225 85.3362 2.69225C85.8665 2.69225 86.3968 2.73304 86.9271 2.85542C87.4574 2.937 87.9469 3.14096 88.3548 3.46729C88.8035 3.75283 89.1298 4.16075 89.4154 4.69104C89.6601 5.22133 89.8233 5.874 89.8233 6.68983V10.2387H96.7987V15.2561H89.8641V25.8619C89.8641 28.187 90.8023 29.3292 92.6787 29.3292C93.1274 29.3292 93.5761 29.2476 93.984 29.1253C94.392 28.9621 94.7591 28.7989 95.0854 28.6358C95.4117 28.4726 95.6973 28.2686 95.942 28.0647C96.1868 27.8607 96.35 27.6976 96.4723 27.616C96.9618 28.3502 97.3697 28.9621 97.6145 29.4924C97.8592 30.0227 98.0224 30.5122 98.0224 31.0017C98.0224 31.4504 97.8592 31.8583 97.4921 32.2662C97.125 32.6741 96.6355 33.082 96.0236 33.4084C95.4117 33.7755 94.6367 34.0611 93.7393 34.265C92.8419 34.469 91.8629 34.5913 90.8023 34.5913C88.7627 34.5913 87.131 34.1834 85.9889 33.4084C84.9283 32.5518 84.1125 31.532 83.623 30.2266ZM113.931 29.574C114.747 29.574 115.481 29.4924 116.134 29.2884C116.746 29.1253 117.317 28.8805 117.847 28.6358C118.337 28.391 118.785 28.0647 119.152 27.7791C119.52 27.4528 119.846 27.1673 120.132 26.9225C120.539 27.412 120.947 28.0647 121.396 28.8397C121.845 29.6148 122.049 30.2674 122.049 30.7569C122.049 31.4912 121.641 32.1438 120.825 32.7557C120.132 33.286 119.153 33.7347 117.847 34.1426C116.583 34.5098 115.073 34.7137 113.36 34.7137C111.81 34.7137 110.26 34.5098 108.751 34.1018C107.241 33.6939 105.895 33.0005 104.712 32.0215C103.529 31.0425 102.591 29.6963 101.857 28.0239C101.123 26.3514 100.755 24.2303 100.755 21.7012C100.755 19.6208 101.082 17.826 101.734 16.3167C102.387 14.8074 103.244 13.5428 104.304 12.5638C105.365 11.5848 106.589 10.8506 107.976 10.3611C109.322 9.91238 110.709 9.66763 112.136 9.66763C113.972 9.66763 115.563 9.95316 116.868 10.5242C118.174 11.0953 119.193 11.8704 120.009 12.8494C120.825 13.8284 121.396 14.9298 121.763 16.1943C122.13 17.4588 122.293 18.7642 122.293 20.1511V20.8446C122.293 21.1301 122.293 21.3748 122.253 21.7012C122.253 21.9867 122.212 22.2723 122.212 22.5578C122.212 22.8433 122.171 23.0473 122.13 23.2105H107.486C107.608 25.0461 108.18 26.5554 109.199 27.7791C110.178 28.9621 111.769 29.574 113.931 29.574ZM116.216 19.4984C116.216 17.9075 115.889 16.6022 115.277 15.6232C114.665 14.6442 113.564 14.1139 111.973 14.1139C110.586 14.1139 109.526 14.6034 108.71 15.5416C107.894 16.4798 107.486 17.7852 107.486 19.4984H116.216ZM134.082 12.6046C134.286 12.3191 134.531 11.9928 134.857 11.6256C135.184 11.2585 135.592 10.9322 136.081 10.6466C136.571 10.3611 137.101 10.1163 137.672 9.91237C138.243 9.70841 138.855 9.62684 139.548 9.62684C139.956 9.62684 140.364 9.66762 140.813 9.70841C141.262 9.79 141.67 9.91238 142.037 10.0755C142.404 10.2387 142.73 10.4835 142.975 10.8098C143.22 11.1361 143.342 11.5032 143.342 11.952C143.342 12.6862 143.179 13.502 142.812 14.4403C142.445 15.3785 142.077 16.1943 141.71 16.847C141.139 16.3982 140.568 16.0311 140.038 15.7864C139.467 15.5416 138.814 15.4192 138.039 15.4192C137.019 15.4192 136.163 15.7048 135.469 16.3167C134.776 16.9285 134.409 17.622 134.409 18.4786V34.5506H127.637V10.2795C127.8 10.2387 128.004 10.1979 128.249 10.1979C128.453 10.1571 128.698 10.1571 128.942 10.1163C129.187 10.1163 129.514 10.0755 129.881 10.0755C130.941 10.0755 131.88 10.2795 132.655 10.6874C133.389 11.1361 133.878 11.748 134.082 12.6046ZM153.295 12.6046C153.499 12.3191 153.744 11.9928 154.07 11.6256C154.397 11.2585 154.804 10.9322 155.294 10.6466C155.783 10.3611 156.314 10.1163 156.885 9.91237C157.456 9.70841 158.068 9.62684 158.761 9.62684C159.169 9.62684 159.577 9.66762 160.026 9.70841C160.474 9.79 160.882 9.91238 161.25 10.0755C161.617 10.2387 161.943 10.4835 162.188 10.8098C162.432 11.1361 162.555 11.5032 162.555 11.952C162.555 12.6862 162.392 13.502 162.025 14.4403C161.657 15.3785 161.29 16.1943 160.923 16.847C160.352 16.3982 159.781 16.0311 159.251 15.7864C158.68 15.5416 158.027 15.4192 157.252 15.4192C156.232 15.4192 155.376 15.7048 154.682 16.3167C153.989 16.9285 153.621 17.622 153.621 18.4786V34.5506H146.85V10.2795C147.013 10.2387 147.217 10.1979 147.462 10.1979C147.666 10.1571 147.911 10.1571 148.155 10.1163C148.4 10.1163 148.726 10.0755 149.094 10.0755C150.154 10.0755 151.092 10.2795 151.867 10.6874C152.602 11.1361 153.091 11.748 153.295 12.6046ZM185.561 28.0239C185.561 30.6346 185.928 32.5518 186.704 33.7347C186.092 33.9795 185.561 34.1426 185.031 34.2242C184.501 34.3058 183.97 34.3874 183.399 34.3874C182.216 34.3874 181.319 34.1426 180.707 33.6939C180.095 33.2452 179.687 32.5518 179.524 31.6951C178.79 32.4702 177.852 33.1228 176.628 33.6531C175.445 34.1834 173.977 34.4282 172.263 34.4282C171.366 34.4282 170.468 34.3058 169.571 34.0611C168.674 33.8163 167.858 33.4084 167.124 32.8373C166.389 32.2662 165.818 31.532 165.329 30.5938C164.88 29.6556 164.635 28.5134 164.635 27.1673C164.635 25.4948 165.043 24.1079 165.859 23.0473C166.675 21.9867 167.695 21.1709 168.918 20.559C170.142 19.9471 171.488 19.5392 172.875 19.2945C174.303 19.0497 175.608 18.9273 176.791 18.8458C177.199 18.805 177.566 18.805 177.974 18.805H179.035V17.9075C179.035 16.643 178.708 15.7456 178.015 15.1745C177.321 14.6442 176.22 14.3587 174.711 14.3587C173.283 14.3587 172.019 14.6034 170.917 15.0521C169.816 15.5008 168.714 16.0311 167.654 16.643C167.205 16.0719 166.797 15.4601 166.552 14.7666C166.267 14.0731 166.145 13.5836 166.145 13.2573C166.145 12.8086 166.389 12.3599 166.92 11.9112C167.45 11.4625 168.143 11.0953 169.041 10.7282C169.938 10.3611 170.958 10.1163 172.141 9.87159C173.283 9.66763 174.507 9.54525 175.812 9.54525C177.607 9.54525 179.116 9.70842 180.34 10.0755C181.564 10.4427 182.584 11.0137 183.359 11.748C184.134 12.523 184.705 13.4612 185.031 14.6034C185.357 15.7456 185.521 17.0917 185.521 18.601L185.561 28.0239ZM179.198 22.2723H178.504C178.26 22.2723 178.056 22.2723 177.811 22.3131C176.995 22.3946 176.179 22.4762 175.363 22.5986C174.548 22.721 173.813 22.9657 173.201 23.2921C172.59 23.6184 172.059 24.0671 171.651 24.5974C171.243 25.1277 171.04 25.8211 171.04 26.637C171.04 27.5752 171.284 28.3502 171.815 29.0029C172.345 29.6556 173.242 29.9819 174.507 29.9819C175.119 29.9819 175.731 29.9003 176.302 29.7371C176.873 29.574 177.362 29.37 177.811 29.0845C178.26 28.7989 178.586 28.5134 178.831 28.2278C179.075 27.9015 179.198 27.616 179.198 27.3712V22.2723Z" fill="var(--fill-0, #044D80)"/>
</g>
</svg>
