<svg preserveAspectRatio="none" width="100%" height="100%" overflow="visible" style="display: block;" viewBox="0 0 39.7311 41.6813" fill="none" xmlns="http://www.w3.org/2000/svg">
<g id="Cursor">
<g id="Shape" filter="url(#filter0_d_10380_13862)">
<path fill-rule="evenodd" clip-rule="evenodd" d="M10.1507 28.2225C9.60884 27.4889 8.95058 25.989 7.77908 24.1682C7.1151 23.1383 5.46851 21.1991 4.97816 20.2141C4.55268 19.3436 4.59847 18.9533 4.69959 18.232C4.87895 16.9487 6.10769 15.9494 7.41847 16.0843C8.40871 16.1844 9.24823 16.8853 10.0038 17.5474C10.4598 17.9459 11.0207 18.7203 11.3585 19.1576C11.6695 19.5582 11.7458 19.7237 12.0778 20.1978C12.5166 20.8251 12.654 21.1357 12.4861 20.445C12.3506 19.4315 12.1293 17.7007 11.8087 16.1701C11.5645 15.0094 11.5054 14.8275 11.2726 13.9366C11.0265 12.9884 10.9005 12.3243 10.6697 11.3189C10.5094 10.6078 10.2213 9.15485 10.1431 8.33746C10.0343 7.21968 9.97708 5.39691 10.6468 4.55908C11.1715 3.90313 12.3754 3.70491 13.1214 4.10952C14.0983 4.63878 14.6535 6.15912 14.9073 6.76603C15.3633 7.85725 15.6457 9.11807 15.8918 10.7733C16.2047 12.8801 16.7809 15.8043 16.8 16.4194C16.8458 15.6654 16.6703 14.0776 16.7924 13.3542C16.9031 12.6982 17.4182 11.936 18.0631 11.7296C18.6088 11.5559 19.248 11.4926 19.8108 11.6172C20.408 11.748 21.0376 12.2058 21.2723 12.6369C21.963 13.9121 21.9764 16.5175 22.005 16.3785C22.1691 15.6102 22.1405 13.8671 22.5469 13.1417C22.814 12.6635 23.4951 12.2323 23.8576 12.1628C24.4186 12.0566 25.1074 12.0239 25.6969 12.1465C26.172 12.2466 26.815 12.8515 26.9886 13.1417C27.4046 13.8446 27.6412 15.8329 27.7118 16.5297C27.7404 16.8179 27.853 15.7287 28.2708 15.0257C29.0455 13.72 31.7872 13.4666 31.8922 16.3315C31.9399 17.668 31.9303 17.6067 31.9303 18.5058C31.9303 19.5623 31.9074 20.1978 31.854 20.962C31.7949 21.7794 31.6308 23.6267 31.3923 24.5218C31.2282 25.1368 30.6844 26.5203 30.1483 27.3499C30.1483 27.3499 28.0991 29.9043 27.8759 31.0547C27.6507 32.2032 27.7251 32.2113 27.6812 33.0267C27.6374 33.84 27.9121 34.9108 27.9121 34.9108C27.9121 34.9108 26.3819 35.1233 25.5577 34.9823C24.8116 34.8535 23.8882 33.2637 23.6497 32.7774C23.3215 32.1071 22.6213 32.2359 22.3484 32.7304C21.9191 33.513 20.9957 34.9169 20.3431 35.0048C19.0686 35.1764 16.4241 35.0681 14.354 35.0456C14.354 35.0456 14.707 32.9797 13.9209 32.2706C13.3389 31.7413 12.3373 30.6685 11.7381 30.1045L10.1507 28.2225Z" fill="var(--fill-0, white)"/>
<path fill-rule="evenodd" clip-rule="evenodd" d="M10.1507 28.2225C9.60884 27.4889 8.95058 25.989 7.77908 24.1682C7.1151 23.1383 5.46851 21.1991 4.97816 20.2141C4.55268 19.3436 4.59847 18.9533 4.69959 18.232C4.87895 16.9487 6.10769 15.9494 7.41847 16.0843C8.40871 16.1844 9.24823 16.8853 10.0038 17.5474C10.4598 17.9459 11.0207 18.7203 11.3585 19.1576C11.6695 19.5582 11.7458 19.7237 12.0778 20.1978C12.5166 20.8251 12.654 21.1357 12.4861 20.445C12.3506 19.4315 12.1293 17.7007 11.8087 16.1701C11.5645 15.0094 11.5054 14.8275 11.2726 13.9366C11.0265 12.9884 10.9005 12.3243 10.6697 11.3189C10.5094 10.6078 10.2213 9.15485 10.1431 8.33746C10.0343 7.21968 9.97708 5.39691 10.6468 4.55908C11.1715 3.90313 12.3754 3.70491 13.1214 4.10952C14.0983 4.63878 14.6535 6.15912 14.9073 6.76603C15.3633 7.85725 15.6457 9.11807 15.8918 10.7733C16.2047 12.8801 16.7809 15.8043 16.8 16.4194C16.8458 15.6654 16.6703 14.0776 16.7924 13.3542C16.9031 12.6982 17.4182 11.936 18.0631 11.7296C18.6088 11.5559 19.248 11.4926 19.8108 11.6172C20.408 11.748 21.0376 12.2058 21.2723 12.6369C21.963 13.9121 21.9764 16.5175 22.005 16.3785C22.1691 15.6102 22.1405 13.8671 22.5469 13.1417C22.814 12.6635 23.4951 12.2323 23.8576 12.1628C24.4186 12.0566 25.1074 12.0239 25.6969 12.1465C26.172 12.2466 26.815 12.8515 26.9886 13.1417C27.4046 13.8446 27.6412 15.8329 27.7118 16.5297C27.7404 16.8179 27.853 15.7287 28.2708 15.0257C29.0455 13.72 31.7872 13.4666 31.8922 16.3315C31.9399 17.668 31.9303 17.6067 31.9303 18.5058C31.9303 19.5623 31.9074 20.1978 31.854 20.962C31.7949 21.7794 31.6308 23.6267 31.3923 24.5218C31.2282 25.1368 30.6844 26.5203 30.1483 27.3499C30.1483 27.3499 28.0991 29.9043 27.8759 31.0547C27.6507 32.2032 27.7251 32.2113 27.6812 33.0267C27.6374 33.84 27.9121 34.9108 27.9121 34.9108C27.9121 34.9108 26.3819 35.1233 25.5577 34.9823C24.8116 34.8535 23.8882 33.2637 23.6497 32.7774C23.3215 32.1071 22.6213 32.2359 22.3484 32.7304C21.9191 33.513 20.9957 34.9169 20.3431 35.0048C19.0686 35.1764 16.4241 35.0681 14.354 35.0456C14.354 35.0456 14.707 32.9797 13.9209 32.2706C13.3389 31.7413 12.3373 30.6685 11.7381 30.1045L10.1507 28.2225Z" stroke="var(--stroke-0, black)" stroke-width="1.4625" stroke-linecap="round" stroke-linejoin="round"/>
</g>
<path id="Lines" fill-rule="evenodd" clip-rule="evenodd" d="M16.3315 22.4248V28.2744C16.3315 28.8129 16.7677 29.25 17.3061 29.25C17.8446 29.25 18.2807 28.8129 18.2807 28.2744V22.4248C18.2807 21.8863 17.8446 21.4502 17.3061 21.4502C16.7677 21.4502 16.3315 21.8863 16.3315 22.4248ZM20.2315 28.2744V22.4248C20.2315 21.8863 20.6677 21.4502 21.2061 21.4502C21.7446 21.4502 22.1807 21.8863 22.1807 22.4248V28.2744C22.1807 28.8129 21.7446 29.25 21.2061 29.25C20.6677 29.25 20.2315 28.8129 20.2315 28.2744ZM24.1315 28.2744V22.4248C24.1315 21.8863 24.5677 21.4502 25.1061 21.4502C25.6446 21.4502 26.0807 21.8863 26.0807 22.4248V28.2744C26.0807 28.8129 25.6446 29.25 25.1061 29.25C24.5677 29.25 24.1315 28.8129 24.1315 28.2744Z" fill="var(--fill-0, black)"/>
</g>
<defs>
<filter id="filter0_d_10380_13862" x="0" y="1.21885" width="36.5623" height="40.4624" filterUnits="userSpaceOnUse" color-interpolation-filters="sRGB">
<feFlood flood-opacity="0" result="BackgroundImageFix"/>
<feColorMatrix in="SourceAlpha" type="matrix" values="0 0 0 0 0 0 0 0 0 0 0 0 0 0 0 0 0 0 127 0" result="hardAlpha"/>
<feOffset dy="1.95"/>
<feGaussianBlur stdDeviation="1.95"/>
<feColorMatrix type="matrix" values="0 0 0 0 0 0 0 0 0 0 0 0 0 0 0 0 0 0 0.24 0"/>
<feBlend mode="normal" in2="BackgroundImageFix" result="effect1_dropShadow_10380_13862"/>
<feBlend mode="normal" in="SourceGraphic" in2="effect1_dropShadow_10380_13862" result="shape"/>
</filter>
</defs>
</svg>
