<svg preserveAspectRatio="none" width="100%" height="100%" overflow="visible" style="display: block;" viewBox="0 0 990.446 178.072" fill="none" xmlns="http://www.w3.org/2000/svg">
<g id="Group" opacity="0.7">
<path id="Vector" d="M0.107518 146.605C105.138 109.973 217.94 100.636 329.141 102.595C440.375 104.554 551.087 117.515 662.125 124.11C716.159 127.31 770.551 129.04 824.226 122.086C856.45 117.94 889.36 110.169 915.185 90.4495C939.737 71.7092 955.506 44.0231 970.655 17.088" stroke="var(--stroke-0, #E42527)" stroke-width="0.652974" stroke-miterlimit="10"/>
<path id="Vector_2" d="M31.94 60.7066C126.034 55.189 215.85 95.4122 303.544 129.889C391.239 164.366 487.944 194.109 578.381 167.5C609.202 158.424 637.769 143.145 666.598 128.942C767.384 79.251 878.814 40.9868 990.408 54.0463" stroke="var(--stroke-0, #226DB4)" stroke-width="0.652974" stroke-miterlimit="10"/>
<path id="Vector_3" d="M951.849 4.19172C909.243 -3.15423 865.037 0.0126926 823.736 13.3334C778.583 27.9273 737.707 54.1116 695.623 76.7698C643.581 104.782 588.241 127.832 530.159 134.427C422.19 146.671 315.788 101.387 207.263 97.2405C173.374 95.9345 138.571 98.9056 107.685 113.663C74.5465 129.53 48.1664 157.836 16.3666 176.479" stroke="var(--stroke-0, #089949)" stroke-width="0.652974" stroke-miterlimit="10"/>
<path id="Vector_4" d="M955.441 116.111C875.745 105.239 800.164 74.8108 719.456 72.3622C656.967 70.4686 595.75 85.4543 535.938 100.636C496.923 110.529 457.875 120.617 420.198 133.611C393.132 142.949 366.752 153.821 338.772 161.101C316.767 166.815 294.044 170.243 271.353 173.671C261.134 175.206 250.686 176.74 240.402 175.532C231.032 174.422 222.315 171.059 213.761 167.729C165.963 149.087 118.786 129.334 72.2611 108.602" stroke="var(--stroke-0, #F9B21D)" stroke-width="0.652974" stroke-miterlimit="10"/>
</g>
</svg>
