<svg preserveAspectRatio="none" width="100%" height="100%" overflow="visible" style="display: block;" viewBox="0 0 20.6665 20.6665" fill="none" xmlns="http://www.w3.org/2000/svg">
<g id="Group">
<path id="Vector" d="M10.3333 20.6665C16.0401 20.6665 20.6665 16.0401 20.6665 10.3333C20.6665 4.62635 16.0401 0 10.3333 0C4.62635 0 0 4.62635 0 10.3333C0 16.0401 4.62635 20.6665 10.3333 20.6665Z" fill="var(--fill-0, #FF492C)"/>
<path id="Vector_2" d="M14.8054 7.91526H13.0404C13.088 7.63833 13.2595 7.48333 13.6067 7.30766L13.9312 7.14233C14.5119 6.84473 14.8219 6.50787 14.8219 5.95814C14.8219 5.61301 14.6876 5.34021 14.421 5.14388C14.1544 4.94755 13.8402 4.85041 13.4724 4.85041C13.1877 4.84731 12.9082 4.92688 12.6684 5.07981C12.4266 5.22861 12.2468 5.42081 12.1352 5.66054L12.6457 6.17307C12.8441 5.77214 13.1314 5.57581 13.5096 5.57581C13.8299 5.57581 14.0262 5.74114 14.0262 5.97054C14.0262 6.16274 13.9312 6.32187 13.5633 6.50787L13.3546 6.60913C12.902 6.83853 12.5878 7.101 12.406 7.39859C12.2241 7.69619 12.1352 8.07026 12.1352 8.52285V8.64685H14.8054V7.91526Z" fill="var(--fill-0, white)"/>
<path id="Vector_3" d="M14.5699 9.49004H11.6477L10.1866 12.0196H13.1088L14.5699 14.5513L16.031 12.0196L14.5699 9.49004Z" fill="var(--fill-0, white)"/>
<path id="Vector_4" d="M10.4387 13.7081C8.57868 13.7081 7.06382 12.1932 7.06382 10.3332C7.06382 8.47326 8.57868 6.95841 10.4387 6.95841L11.5939 4.54249C11.2137 4.46706 10.8267 4.42883 10.4387 4.42883C7.17749 4.42883 4.53424 7.07208 4.53424 10.3332C4.53424 13.5944 7.17749 16.2377 10.4387 16.2377C11.6885 16.2403 12.9062 15.8435 13.9148 15.1051L12.6376 12.8897C12.0264 13.4177 11.2462 13.7081 10.4387 13.7081Z" fill="var(--fill-0, white)"/>
</g>
</svg>
