<svg preserveAspectRatio="none" width="100%" height="100%" overflow="visible" style="display: block;" viewBox="0 0 97 97" fill="none" xmlns="http://www.w3.org/2000/svg">
<g id="Group">
<path id="Vector" d="M48.5 97C75.2858 97 97 75.2858 97 48.5C97 21.7142 75.2858 0 48.5 0C21.7142 0 0 21.7142 0 48.5C0 75.2858 21.7142 97 48.5 97Z" fill="var(--fill-0, #FF492C)"/>
<path id="Vector_2" d="M69.4908 37.151H61.207C61.4301 35.8512 62.2352 35.1237 63.8648 34.2992L65.3877 33.5232C68.1134 32.1264 69.5684 30.5453 69.5684 27.9651C69.5684 26.3452 68.9379 25.0648 67.6866 24.1433C66.4353 23.2218 64.9609 22.7659 63.2343 22.7659C61.8982 22.7513 60.5862 23.1248 59.461 23.8426C58.3261 24.541 57.4822 25.4431 56.9584 26.5683L59.3543 28.9739C60.2855 27.0921 61.6338 26.1706 63.4089 26.1706C64.9124 26.1706 65.8339 26.9466 65.8339 28.0233C65.8339 28.9254 65.3877 29.6723 63.6611 30.5453L62.6814 31.0206C60.5571 32.0973 59.0827 33.3292 58.2291 34.726C57.3755 36.1228 56.9584 37.8785 56.9584 40.0028V40.5848H69.4908V37.151Z" fill="var(--fill-0, white)"/>
<path id="Vector_3" d="M68.385 44.5424H54.6692L47.8113 56.4152H61.5271L68.385 68.2977L75.2429 56.4152L68.385 44.5424Z" fill="var(--fill-0, white)"/>
<path id="Vector_4" d="M48.9947 64.3401C40.2647 64.3401 33.1546 57.23 33.1546 48.5C33.1546 39.77 40.2647 32.6599 48.9947 32.6599L54.417 21.3206C52.6322 20.9665 50.8158 20.7871 48.9947 20.7871C33.6881 20.7871 21.2818 33.1934 21.2818 48.5C21.2818 63.8066 33.6881 76.2129 48.9947 76.2129C54.8607 76.225 60.5765 74.3626 65.3101 70.8973L59.3155 60.4989C56.4467 62.9772 52.7849 64.3401 48.9947 64.3401Z" fill="var(--fill-0, white)"/>
</g>
</svg>
