<svg preserveAspectRatio="none" width="100%" height="100%" overflow="visible" style="display: block;" viewBox="0 0 211.019 47.9992" fill="none" xmlns="http://www.w3.org/2000/svg">
<g id="Gartner">
<path id="Path 102368" d="M210.022 15.5907L209.404 22.8862H206.414C201.651 22.8862 199.179 26.6933 199.179 30.3611V46.8453H190.768V15.5907H198.761L198.94 19.4975C200.615 16.8267 203.545 15.5907 207.172 15.5907H210.022Z" fill="var(--fill-0, #182954)"/>
<path id="Path 102369" d="M151.562 46.8448H143.13V30.322C143.13 26.8536 142.814 22.5085 137.968 22.5085C133.284 22.5085 131.41 25.8973 131.41 29.8235V46.8258H122.98V15.5918H130.813L130.993 19.5782C132.667 16.9074 135.796 14.8142 140.4 14.8142C148.912 14.8142 151.583 20.8938 151.583 27.1923L151.562 46.8448Z" fill="var(--fill-0, #182954)"/>
<path id="Path 102370" d="M119.293 39.5498L118.694 46.6655C116.739 47.1901 114.72 47.4387 112.695 47.404C104.743 47.404 102.43 43.7562 102.43 36.4211V6.78071H110.881V15.5902H119.272L118.692 22.8857H110.881V35.7623C110.881 38.7121 111.678 40.2868 114.708 40.2868C116.267 40.3017 117.817 40.0526 119.293 39.5498Z" fill="var(--fill-0, #182954)"/>
<path id="Path 102371" d="M99.6796 15.5907L99.0218 22.8862H96.7298C91.986 22.8862 89.6143 26.6933 89.6143 30.3611V46.8453H81.1828V15.5907H89.1554L89.3137 19.4975C91.008 16.8462 93.9377 15.5907 97.5653 15.5907H99.6796Z" fill="var(--fill-0, #182954)"/>
<path id="Path 102372" d="M43.0931 43.3766C37.3728 46.4462 31.6521 48.2002 24.0978 47.9808C10.1053 47.5624 0 38.8521 0 24.182C0 9.56989 10.205 0.223411 24.1178 0.00396532C31.1737 -0.0957347 37.472 1.67829 42.4152 6.04347L36.4555 12.0429C33.406 9.43168 28.9212 7.91667 23.5397 8.15616C14.7895 8.55496 9.50819 14.9331 9.38792 23.665C9.26818 33.1328 15.0886 39.6708 24.1774 39.9124C28.4628 40.0121 31.5123 39.454 34.1635 38.2582V28.5867H24.7155L25.3532 20.6361H43.073L43.0931 43.3766Z" fill="var(--fill-0, #182954)"/>
<path id="Path 102373" d="M187.001 34.2077H163.862C164.52 38.1941 167.669 40.6059 171.576 40.7257C175.383 40.8254 177.495 39.6891 180.286 36.859L185.787 41.0263C181.88 45.8499 177.177 47.6039 171.815 47.6039C162.407 47.6039 155.371 41.0263 155.371 31.2193C155.371 21.4123 162.385 14.8332 171.474 14.8332C181.5 14.8332 186.983 20.9128 186.983 31.6762L187.001 34.2077ZM178.55 27.6518C178.291 23.7049 175.342 21.2161 171.256 21.3744C167.19 21.5326 164.419 24.205 163.861 27.6518H178.55Z" fill="var(--fill-0, #182954)"/>
<path id="Path 102374" d="M75.8608 26.3741V46.8448H68.4062L68.2269 43.7552C65.9544 46.5858 62.2471 47.6023 58.4201 47.6023C52.6798 47.6023 47.2582 44.7717 47.1385 38.1741C46.9802 27.809 58.8184 27.0715 66.2529 27.0715H67.7479V26.6537C67.7479 23.2249 65.4754 21.3717 61.21 21.3717C58.1056 21.3858 55.1217 22.5751 52.8587 24.7003L47.9951 19.757C51.8961 16.5077 56.8309 14.7613 61.9074 14.8337C71.5955 14.8332 75.8608 19.2981 75.8608 26.3741ZM67.7484 33.2107H66.5726C62.5863 33.2107 55.57 33.4101 55.5901 37.5959C55.6302 43.4962 67.7484 41.6024 67.7484 34.5063V33.2107Z" fill="var(--fill-0, #182954)"/>
<path id="Path 102375" d="M203.445 43.197C203.458 42.2842 203.832 41.4137 204.484 40.7752C205.137 40.1367 206.015 39.782 206.928 39.7886C207.841 39.7952 208.714 40.1624 209.357 40.8103C210 41.4581 210.361 42.334 210.361 43.2469C210.361 44.1598 210 45.0357 209.357 45.6835C208.714 46.3314 207.841 46.6986 206.928 46.7052C206.015 46.7118 205.137 46.3571 204.484 45.7186C203.832 45.0801 203.458 44.2095 203.445 43.2967V43.197ZM206.853 47.4229C207.967 47.4098 209.03 46.9564 209.811 46.1619C210.591 45.3674 211.026 44.2962 211.019 43.1824C211.013 42.0687 210.566 41.0027 209.776 40.2175C208.986 39.4322 207.917 38.9915 206.803 38.9915C205.69 38.9915 204.621 39.4322 203.831 40.2175C203.041 41.0027 202.594 42.0687 202.588 43.1824C202.581 44.2962 203.016 45.3674 203.796 46.1619C204.577 46.9564 205.64 47.4098 206.754 47.4229H206.853ZM205.957 43.5362H206.814L208.089 45.6289H208.906L207.551 43.4961C207.722 43.4956 207.891 43.4599 208.047 43.3913C208.203 43.3226 208.344 43.2226 208.46 43.0973C208.576 42.972 208.665 42.8241 208.721 42.6629C208.777 42.5018 208.8 42.3307 208.787 42.1605C208.787 41.2036 208.229 40.7853 207.073 40.7853H205.239V45.6289H205.978L205.957 43.5362ZM205.957 42.9185V41.423H206.953C207.471 41.423 208.008 41.5227 208.008 42.1404C208.008 42.879 207.45 42.9375 206.832 42.9375L205.957 42.9185Z" fill="var(--fill-0, #182954)"/>
</g>
</svg>
