<svg preserveAspectRatio="none" width="100%" height="100%" overflow="visible" style="display: block;" viewBox="0 0 40 40" fill="none" xmlns="http://www.w3.org/2000/svg">
<g id="Github" clip-path="url(#clip0_10380_13907)">
<foreignObject x="-5.45455" y="-5.45455" width="50.9091" height="50.9091"><div xmlns="http://www.w3.org/1999/xhtml" style="backdrop-filter:blur(2.73px);clip-path:url(#bgblur_1_10380_13907_clip_path);height:100%;width:100%"></div></foreignObject><g id="Rectangle 1" filter="url(#filter0_ii_10380_13907)" data-figma-bg-blur-radius="5.45455">
<rect width="40" height="40" rx="9.09091" fill="var(--fill-0, white)" fill-opacity="0.03"/>
</g>
<g id="Vector 1" filter="url(#filter1_f_10380_13907)">
<path d="M32.7271 40H7.09076C8.66596 38.6667 13.4467 36 19.968 36C26.4893 36 31.1913 38.6667 32.7271 40Z" fill="url(#paint0_linear_10380_13907)"/>
</g>
<g id="light">
<g id="Vector" filter="url(#filter2_f_10380_13907)">
<path fill-rule="evenodd" clip-rule="evenodd" d="M19.909 12.1818C15.6397 12.1818 12.1817 15.7272 12.1817 20.1045C12.1817 23.6103 14.3936 26.5715 17.4652 27.6212C17.8516 27.6905 17.9965 27.4529 17.9965 27.2449C17.9965 27.0567 17.9868 26.4328 17.9868 25.7693C16.0453 26.1357 15.5431 25.284 15.3885 24.8384C15.3016 24.6106 14.9249 23.9074 14.5965 23.7193C14.326 23.5707 13.9397 23.2043 14.5868 23.1944C15.1953 23.1845 15.63 23.7688 15.7749 24.0065C16.4703 25.2048 17.5811 24.8681 18.0255 24.6601C18.0931 24.1451 18.2959 23.7985 18.5181 23.6004C16.7987 23.4024 15.0022 22.719 15.0022 19.6886C15.0022 18.827 15.3016 18.114 15.7942 17.5594C15.7169 17.3613 15.4465 16.5492 15.8715 15.4598C15.8715 15.4598 16.5186 15.2519 17.9965 16.2719C18.6147 16.0937 19.2715 16.0045 19.9283 16.0045C20.5851 16.0045 21.2419 16.0937 21.8601 16.2719C23.338 15.242 23.9851 15.4598 23.9851 15.4598C24.4101 16.5492 24.1397 17.3613 24.0624 17.5594C24.555 18.114 24.8544 18.8171 24.8544 19.6886C24.8544 22.7289 23.0482 23.4024 21.3289 23.6004C21.609 23.848 21.8505 24.3234 21.8505 25.0661C21.8505 26.1258 21.8408 26.9775 21.8408 27.2449C21.8408 27.4529 21.9857 27.7005 22.372 27.6212C23.906 27.0902 25.239 26.0794 26.1833 24.731C27.1276 23.3826 27.6358 21.7645 27.6362 20.1045C27.6362 15.7272 24.1783 12.1818 19.909 12.1818Z" fill="url(#paint1_linear_10380_13907)"/>
</g>
</g>
<g id="Group 1">
<path id="Vector_2" d="M8.75 17.3454H17.0456H22.0833V12.3529L8.75 17.3454Z" fill="var(--fill-0, #FF9D28)"/>
<path id="Vector_3" d="M22.0834 12.3529V30L28.3881 10L22.0834 12.3529Z" fill="var(--fill-0, #68C5ED)"/>
<path id="Vector_4" d="M22.0833 17.3454H17.0456L22.0833 29.9849V17.3454Z" fill="var(--fill-0, #044D80)"/>
<path id="Vector_5" d="M8.75 17.3454L18.3428 20.5883L17.0456 17.3454H8.75Z" fill="var(--fill-0, #E54747)"/>
</g>
</g>
<defs>
<filter id="filter0_ii_10380_13907" x="-5.45455" y="-5.45455" width="50.9091" height="50.9091" filterUnits="userSpaceOnUse" color-interpolation-filters="sRGB">
<feFlood flood-opacity="0" result="BackgroundImageFix"/>
<feBlend mode="normal" in="SourceGraphic" in2="BackgroundImageFix" result="shape"/>
<feColorMatrix in="SourceAlpha" type="matrix" values="0 0 0 0 0 0 0 0 0 0 0 0 0 0 0 0 0 0 127 0" result="hardAlpha"/>
<feOffset dx="1.81818" dy="1.81818"/>
<feGaussianBlur stdDeviation="0.454545"/>
<feComposite in2="hardAlpha" operator="arithmetic" k2="-1" k3="1"/>
<feColorMatrix type="matrix" values="0 0 0 0 1 0 0 0 0 1 0 0 0 0 1 0 0 0 0.1 0"/>
<feBlend mode="normal" in2="shape" result="effect1_innerShadow_10380_13907"/>
<feColorMatrix in="SourceAlpha" type="matrix" values="0 0 0 0 0 0 0 0 0 0 0 0 0 0 0 0 0 0 127 0" result="hardAlpha"/>
<feOffset dy="-0.909091"/>
<feGaussianBlur stdDeviation="2.27273"/>
<feComposite in2="hardAlpha" operator="arithmetic" k2="-1" k3="1"/>
<feColorMatrix type="matrix" values="0 0 0 0 0 0 0 0 0 0.980392 0 0 0 0 0.980392 0 0 0 0.35 0"/>
<feBlend mode="normal" in2="effect1_innerShadow_10380_13907" result="effect2_innerShadow_10380_13907"/>
</filter>
<clipPath id="bgblur_1_10380_13907_clip_path" transform="translate(5.45455 5.45455)"><rect width="40" height="40" rx="9.09091"/>
</clipPath><filter id="filter1_f_10380_13907" x="-2.00015" y="26.9091" width="43.8182" height="22.1818" filterUnits="userSpaceOnUse" color-interpolation-filters="sRGB">
<feFlood flood-opacity="0" result="BackgroundImageFix"/>
<feBlend mode="normal" in="SourceGraphic" in2="BackgroundImageFix" result="shape"/>
<feGaussianBlur stdDeviation="4.54545" result="effect1_foregroundBlur_10380_13907"/>
</filter>
<filter id="filter2_f_10380_13907" x="3.09079" y="3.09091" width="33.6364" height="33.6364" filterUnits="userSpaceOnUse" color-interpolation-filters="sRGB">
<feFlood flood-opacity="0" result="BackgroundImageFix"/>
<feBlend mode="normal" in="SourceGraphic" in2="BackgroundImageFix" result="shape"/>
<feGaussianBlur stdDeviation="4.54545" result="effect1_foregroundBlur_10380_13907"/>
</filter>
<linearGradient id="paint0_linear_10380_13907" x1="9.09076" y1="38" x2="10.7781" y2="32.7244" gradientUnits="userSpaceOnUse">
<stop stop-color="#21B1FF"/>
<stop offset="1" stop-color="#21B1FF"/>
</linearGradient>
<linearGradient id="paint1_linear_10380_13907" x1="26.5054" y1="11.2028" x2="10.948" y2="23.0004" gradientUnits="userSpaceOnUse">
<stop stop-color="white"/>
<stop offset="1" stop-color="white"/>
</linearGradient>
<clipPath id="clip0_10380_13907">
<rect width="40" height="40" fill="white"/>
</clipPath>
</defs>
</svg>
