<svg preserveAspectRatio="none" width="100%" height="100%" overflow="visible" style="display: block;" viewBox="0 0 250 30.9" fill="none" xmlns="http://www.w3.org/2000/svg">
<g id="logo-google-workspace 1" clip-path="url(#clip0_10380_13869)">
<path id="Vector" d="M130.314 2.32956H133.157L127.508 23.5069H124.725L120.175 9.54761H120.054L115.498 23.5069H112.721L106.837 2.32956H109.674L114.14 18.9806H114.26L118.841 5.17212H121.382L125.969 18.9806H126.089L130.314 2.32956Z" fill="var(--fill-0, #5F6368)"/>
<g id="Group">
<path id="Vector_2" d="M132.897 16.2587C132.897 14.0317 133.597 12.191 134.997 10.7305C136.416 9.26999 138.202 8.53974 140.35 8.53974C142.499 8.53974 144.273 9.26999 145.673 10.7305C147.092 12.191 147.804 14.0317 147.804 16.2587C147.804 18.5038 147.092 20.3505 145.673 21.7869C144.273 23.2474 142.499 23.9777 140.35 23.9777C138.202 23.9777 136.416 23.2474 134.997 21.7869C133.597 20.3264 132.897 18.4857 132.897 16.2587ZM135.619 16.2587C135.619 17.8158 136.072 19.0771 136.977 20.0427C137.882 21.0084 139.005 21.4912 140.35 21.4912C141.696 21.4912 142.813 21.0084 143.724 20.0427C144.635 19.0771 145.082 17.8158 145.082 16.2587C145.082 14.7197 144.629 13.4705 143.724 12.5048C142.801 11.5211 141.672 11.0262 140.35 11.0262C139.029 11.0262 137.906 11.5211 136.977 12.5048C136.072 13.4705 135.619 14.7197 135.619 16.2587ZM152.451 23.5069H149.729V9.01651H152.33V11.3823H152.451C152.729 10.6158 153.296 9.958 154.153 9.41483C155.01 8.87167 155.855 8.60009 156.682 8.60009C157.472 8.60009 158.142 8.72079 158.691 8.95616L157.858 11.5875C157.52 11.4487 156.989 11.3823 156.259 11.3823C155.233 11.3823 154.34 11.7987 153.586 12.6255C152.825 13.4524 152.445 14.418 152.445 15.5224V23.5069H152.451ZM172.699 23.5069H169.416L164.889 16.6751L162.674 18.8599V23.5069H159.953V2.32956H162.674V15.3715L168.939 9.01651H172.433V9.13118L166.784 14.7499L172.699 23.3862V23.5069Z" fill="var(--fill-0, #5F6368)"/>
<path id="Vector_3" d="M184.467 19.4815C184.467 20.7429 183.918 21.8111 182.814 22.6741C181.709 23.5372 180.321 23.9777 178.644 23.9777C177.183 23.9777 175.904 23.5975 174.799 22.8371C173.719 22.1068 172.892 21.0567 172.433 19.8376L174.859 18.8056C175.216 19.6747 175.735 20.3506 176.411 20.8334C177.056 21.3041 177.841 21.5576 178.644 21.5576C179.513 21.5576 180.237 21.3705 180.816 20.9963C181.396 20.6222 181.685 20.1756 181.685 19.6686C181.685 18.7452 180.973 18.0633 179.555 17.6287L177.068 17.0071C174.25 16.295 172.838 14.9371 172.838 12.9273C172.838 11.6056 173.375 10.5495 174.449 9.74682C175.523 8.94414 176.899 8.54582 178.577 8.55186C179.857 8.55186 181.015 8.85965 182.053 9.4692C183.091 10.0788 183.81 10.8995 184.226 11.9255L181.8 12.9334C181.522 12.3178 181.052 11.8169 180.454 11.497C179.814 11.147 179.096 10.972 178.366 10.978C177.69 10.9659 177.032 11.153 176.459 11.5091C175.898 11.8652 175.614 12.2997 175.614 12.8127C175.614 13.6395 176.392 14.2309 177.949 14.587L180.14 15.1483C183.031 15.8423 184.467 17.2908 184.467 19.4815ZM193.919 23.9777C192.856 23.9777 191.885 23.7484 191.004 23.2957C190.122 22.8431 189.452 22.2396 188.976 21.4912H188.855L188.976 23.5009V29.8861H186.254V9.01656H188.855V11.0263H188.976C189.446 10.2779 190.122 9.6744 191.004 9.22176C191.879 8.76912 192.85 8.53979 193.919 8.53979C195.832 8.53979 197.449 9.28815 198.771 10.7849C200.129 12.3057 200.811 14.1283 200.811 16.2588C200.811 18.4073 200.129 20.2299 198.771 21.7266C197.449 23.2294 195.832 23.9777 193.919 23.9777ZM193.478 21.4912C194.782 21.4912 195.874 20.9963 196.761 20.0126C197.648 19.047 198.089 17.7977 198.089 16.2588C198.089 14.7439 197.648 13.4886 196.761 12.5049C195.874 11.5212 194.782 11.0263 193.478 11.0263C192.156 11.0263 191.052 11.5212 190.165 12.5049C189.296 13.4886 188.861 14.7439 188.861 16.2588C188.861 17.7977 189.296 19.0591 190.165 20.0428C191.052 21.0084 192.156 21.4912 193.478 21.4912ZM208.258 8.53979C210.268 8.53979 211.855 9.07692 213.02 10.1512C214.185 11.2254 214.764 12.698 214.764 14.5749V23.507H212.163V21.4973H212.042C210.92 23.1509 209.423 23.9838 207.546 23.9838C205.947 23.9838 204.613 23.513 203.539 22.5655C202.464 21.618 201.927 20.4351 201.927 19.0168C201.927 17.5201 202.494 16.3251 203.629 15.438C204.764 14.5508 206.279 14.1042 208.168 14.1042C209.785 14.1042 211.113 14.3999 212.157 14.9914V14.3637C212.157 13.4162 211.783 12.6135 211.034 11.9557C210.31 11.3039 209.375 10.9538 208.403 10.9659C206.882 10.9659 205.681 11.6056 204.794 12.8911L202.398 11.3823C203.726 9.48731 205.675 8.53979 208.258 8.53979ZM204.74 19.0711C204.74 19.7833 205.041 20.3747 205.639 20.8455C206.242 21.3162 206.942 21.5576 207.751 21.5576C208.892 21.5576 209.912 21.1352 210.811 20.2842C211.71 19.4393 212.157 18.4435 212.157 17.2968C211.306 16.6269 210.123 16.2889 208.608 16.2889C207.504 16.2889 206.58 16.5545 205.844 17.0856C205.108 17.6227 204.74 18.2805 204.74 19.0711ZM223.992 23.9777C221.843 23.9777 220.057 23.2475 218.639 21.787C217.238 20.2902 216.538 18.4435 216.538 16.2588C216.538 14.0318 217.238 12.1911 218.639 10.7305C220.057 9.27004 221.843 8.53979 223.992 8.53979C225.47 8.53979 226.762 8.90793 227.866 9.65026C228.971 10.3865 229.798 11.4125 230.353 12.7101L227.872 13.7481C227.106 11.9315 225.754 11.0263 223.823 11.0263C222.579 11.0263 221.505 11.5272 220.6 12.5351C219.713 13.5429 219.266 14.7801 219.266 16.2588C219.266 17.7374 219.707 18.9806 220.6 19.9824C221.505 20.9903 222.579 21.4912 223.823 21.4912C225.814 21.4912 227.214 20.586 228.023 18.7694L230.449 19.8014C229.918 21.105 229.085 22.1249 227.951 22.8612C226.804 23.6096 225.488 23.9777 223.992 23.9777ZM238.633 23.9777C236.503 23.9777 234.746 23.2475 233.37 21.787C231.994 20.3264 231.3 18.4857 231.3 16.2588C231.3 14.0499 231.97 12.2152 233.31 10.7426C234.65 9.27004 236.364 8.53979 238.458 8.53979C240.606 8.53979 242.314 9.23383 243.588 10.6219C244.861 12.01 245.495 13.9594 245.495 16.4639L245.465 16.7597H234.082C234.125 18.1779 234.595 19.3246 235.501 20.1876C236.406 21.0567 237.492 21.4912 238.754 21.4912C240.486 21.4912 241.85 20.6222 242.833 18.8901L245.26 20.073C244.644 21.2619 243.703 22.2577 242.556 22.9397C241.397 23.6337 240.087 23.9777 238.633 23.9777ZM234.288 14.5146H242.592C242.514 13.5067 242.103 12.6739 241.367 12.016C240.631 11.3582 239.641 11.0263 238.398 11.0263C237.372 11.0263 236.491 11.3401 235.748 11.9738C235.006 12.6014 234.517 13.4464 234.288 14.5146Z" fill="var(--fill-0, #5F6368)"/>
</g>
<g id="Group_2">
<path id="Vector_4" d="M16.7203 14.2188V10.9417H27.6801C27.8008 11.6056 27.8612 12.2755 27.8551 12.9514C27.8551 15.4077 27.1852 18.4494 25.0186 20.61C22.9123 22.8008 20.2267 23.9716 16.6599 23.9716C10.0574 23.9716 4.5051 18.5943 4.5051 11.9858C4.5051 5.37728 10.0574 -4.36927e-05 16.6599 -4.36927e-05C20.3172 -4.36927e-05 22.9123 1.43029 24.8738 3.30119L22.5683 5.61265C21.1621 4.29699 19.2671 3.27101 16.6659 3.27101C11.8439 3.27101 8.07188 7.15765 8.07188 11.9858C8.07188 16.8139 11.8439 20.7005 16.6599 20.7005C19.7861 20.7005 21.5725 19.4452 22.7071 18.3046C23.6365 17.3752 24.2461 16.0414 24.4875 14.2248L16.7203 14.2188Z" fill="var(--fill-0, #4285F4)"/>
<path id="Vector_5" d="M44.5544 16.2525C44.5544 20.7004 41.0781 23.9715 36.8113 23.9715C32.5444 23.9715 29.0682 20.7004 29.0682 16.2525C29.0682 11.7805 32.5444 8.53355 36.8113 8.53355C41.0781 8.53355 44.5604 11.7805 44.5544 16.2525ZM41.1687 16.2525C41.1687 13.4763 39.1529 11.5753 36.8113 11.5753C34.4696 11.5753 32.4539 13.4763 32.4539 16.2525C32.4539 18.9985 34.4696 20.9298 36.8113 20.9298C39.1529 20.9298 41.1687 18.9985 41.1687 16.2525Z" fill="var(--fill-0, #EA4335)"/>
<path id="Vector_6" d="M61.4528 16.2525C61.4528 20.7004 57.9766 23.9715 53.7097 23.9715C49.4428 23.9715 45.9606 20.7004 45.9606 16.2525C45.9606 11.7805 49.4368 8.53355 53.7037 8.53355C57.9705 8.53355 61.4528 11.7805 61.4528 16.2525ZM58.0611 16.2525C58.0611 13.4763 56.0453 11.5753 53.7037 11.5753C51.362 11.5753 49.3463 13.4763 49.3463 16.2525C49.3463 18.9985 51.362 20.9298 53.7037 20.9298C56.0453 20.9298 58.0611 18.9985 58.0611 16.2525Z" fill="var(--fill-0, #FBBC04)"/>
<path id="Vector_7" d="M77.6452 9.0044V22.8611C77.6452 28.5643 74.2836 30.8999 70.3064 30.8999C66.5646 30.8999 64.3135 28.3833 63.4686 26.3374L66.4198 25.1062C66.9448 26.3615 68.2303 27.8522 70.3064 27.8522C72.8472 27.8522 74.4284 26.271 74.4284 23.3198V22.2093H74.3137C73.5533 23.1448 72.0928 23.9656 70.2521 23.9656C66.3956 23.9656 62.859 20.604 62.859 16.2768C62.859 11.9194 66.3956 8.52762 70.2521 8.52762C72.0928 8.52762 73.5533 9.3484 74.3137 10.2537H74.4284V8.99837H77.6452V9.0044ZM74.6638 16.2828C74.6638 13.5609 72.8532 11.5754 70.5418 11.5754C68.2062 11.5754 66.2447 13.5609 66.2447 16.2828C66.2447 18.9745 68.2001 20.9299 70.5418 20.9299C72.8532 20.9299 74.6638 18.9745 74.6638 16.2828Z" fill="var(--fill-0, #4285F4)"/>
<path id="Vector_8" d="M79.9989 0.893166H83.3906V23.5009H79.9989V0.893166Z" fill="var(--fill-0, #34A853)"/>
<path id="Vector_9" d="M96.4809 18.7994L99.1122 20.5556C98.2673 21.8109 96.2214 23.9776 92.6848 23.9776C88.3032 23.9776 85.0261 20.5858 85.0261 16.2586C85.0261 11.6719 88.3274 8.53963 92.3045 8.53963C96.3059 8.53963 98.2673 11.7262 98.907 13.4522L99.257 14.3273L88.9369 18.5942C89.7275 20.1452 90.9527 20.9358 92.6787 20.9358C94.4048 20.9358 95.5997 20.0849 96.4809 18.7994ZM88.3817 16.0232L95.2799 13.1565C94.8997 12.1909 93.759 11.521 92.4132 11.521C90.6932 11.521 88.2972 13.0419 88.3817 16.0232Z" fill="var(--fill-0, #EA4335)"/>
</g>
</g>
<defs>
<clipPath id="clip0_10380_13869">
<rect width="250" height="30.9" fill="white"/>
</clipPath>
</defs>
</svg>
