<svg preserveAspectRatio="none" width="100%" height="100%" overflow="visible" style="display: block;" viewBox="0 0 97.1913 108.146" fill="none" xmlns="http://www.w3.org/2000/svg">
<g id="16 hubspot">
<path id="Path 29" d="M93.7265 51.4863C91.3238 47.3783 87.8953 43.9669 83.7777 41.5873C80.6914 39.7593 77.2693 38.5722 73.7151 38.0967V25.0195C75.4947 24.2801 77.0122 23.0236 78.0719 21.4122C79.1316 19.8008 79.6848 17.9084 79.6602 15.9791C79.6602 14.6754 79.4037 13.3844 78.9055 12.1798C78.4073 10.9753 77.677 9.88085 76.7564 8.95895C75.8359 8.03705 74.743 7.30575 73.5401 6.80682C72.3373 6.30789 71.0482 6.05109 69.7463 6.05109C68.4444 6.05109 67.1552 6.30789 65.9524 6.80682C64.7496 7.30575 63.6567 8.03705 62.7361 8.95895C61.8155 9.88085 61.0853 10.9753 60.587 12.1798C60.0888 13.3844 59.8324 14.6754 59.8324 15.9791C59.8324 20.0067 61.9774 23.4581 65.6455 25.0185V38.1016C62.5985 38.542 59.642 39.4699 56.889 40.8499C51.213 36.5342 32.601 22.3719 21.7123 14.1002C21.9966 13.1566 22.1508 12.1785 22.1706 11.1931C22.1909 8.73559 21.3963 6.3408 19.9114 4.38414C18.4265 2.42749 16.3352 1.01959 13.9653 0.381145C11.5955 -0.257298 9.08109 -0.0901863 6.81628 0.856282C4.55148 1.80275 2.66431 3.47507 1.45061 5.61108C0.23692 7.74709 -0.234685 10.226 0.109729 12.6593C0.454144 15.0926 1.59511 17.3426 3.35376 19.0567C5.11241 20.7708 7.38932 21.8521 9.82757 22.1309C12.2658 22.4098 14.7276 21.8706 16.8269 20.5978L19.124 22.343L50.6959 45.1237C48.9858 46.6677 47.4841 48.4286 46.2289 50.3617C43.7089 54.3548 42.1691 58.7479 42.1691 63.5404V64.5394C42.18 67.791 42.7641 71.015 43.8946 74.0632C44.8573 76.6444 46.2395 79.0486 47.9852 81.1785L37.5069 91.6974C35.7107 91.0457 33.7472 91.0216 31.9355 91.629C30.1239 92.2364 28.5707 93.4395 27.5284 95.0429C26.486 96.6462 26.0159 98.5555 26.1943 100.46C26.3728 102.365 27.1893 104.153 28.5112 105.535C29.8332 106.916 31.5827 107.809 33.4756 108.068C35.3684 108.328 37.2932 107.938 38.937 106.963C40.5808 105.988 41.8471 104.485 42.5299 102.699C43.2127 100.912 43.272 98.9462 42.6981 97.1214L53.5285 86.2739C55.0421 87.3096 56.6541 88.193 58.3411 88.9113C61.8919 90.4694 65.7258 91.276 69.6024 91.2805H70.3552C74.9441 91.2838 79.4579 90.1145 83.4695 87.8832C87.4811 85.6519 90.8579 82.4325 93.2803 78.5295C95.8364 74.5211 97.1936 69.8638 97.1913 65.1078V64.8624C97.1913 60.0294 96.0741 55.5695 93.7271 51.4839L93.7265 51.4863ZM80.4933 74.2414C77.5544 77.5129 74.1746 79.5279 70.3557 79.5279H69.7262C67.4843 79.4942 65.2849 78.9101 63.3209 77.827C61.0382 76.6373 59.1046 74.8723 57.7108 72.7061C56.1966 70.5623 55.3748 68.2217 55.3748 65.7401V64.9863C55.3278 62.5712 55.8937 60.1836 57.0195 58.0473C58.2308 55.7151 60.0319 53.7419 62.243 52.3249C64.3799 50.8822 66.9023 50.1199 69.4795 50.1379H69.7251C72.0866 50.1049 74.4212 50.6435 76.5302 51.708C78.6956 52.8504 80.5349 54.5262 81.8748 56.5774C83.203 58.6358 84.0244 60.9805 84.2717 63.4187C84.3121 63.9317 84.3326 64.4582 84.3326 64.9606C84.3334 68.3167 83.0541 71.4223 80.4943 74.2414H80.4933Z" fill="var(--fill-0, #F8761F)"/>
</g>
</svg>
