<svg preserveAspectRatio="none" width="100%" height="100%" overflow="visible" style="display: block;" viewBox="0 0 228.25 58.4063" fill="none" xmlns="http://www.w3.org/2000/svg">
<g id="Intuit_QuickBooks_logo 1" clip-path="url(#clip0_10380_13893)">
<g id="Group 1000002096">
<path id="Vector" d="M26.0458 52.0916C40.4273 52.0916 52.0916 40.4273 52.0916 26.0458C52.0916 11.6643 40.4273 0 26.0458 0C11.6643 0 0 11.6643 0 26.0458C0 40.4273 11.6559 52.0916 26.0458 52.0916Z" fill="var(--fill-0, #2CA01C)"/>
<path id="Vector_2" d="M17.361 15.9136C11.7659 15.9136 7.22882 20.4506 7.22882 26.0458C7.22882 31.6409 11.7574 36.1695 17.361 36.1695H18.8085V32.4112H17.361C13.8482 32.4112 10.9956 29.5586 10.9956 26.0458C10.9956 22.5329 13.8482 19.6804 17.361 19.6804H20.84V39.3607C20.84 41.4346 22.5245 43.119 24.5983 43.119V15.9136H17.361ZM34.7306 36.1695C40.3257 36.1695 44.8628 31.6325 44.8628 26.0458C44.8628 20.4591 40.3342 15.922 34.7306 15.922H33.2831V19.6804H34.7306C38.2434 19.6804 41.096 22.5329 41.096 26.0458C41.096 29.5586 38.2434 32.4112 34.7306 32.4112H31.2516V12.7309C31.2516 10.657 29.5671 8.97253 27.4933 8.97253V36.1695H34.7306Z" fill="var(--fill-0, white)"/>
</g>
<path id="Vector_3" d="M76.8169 58.4063H72.7877V48.2064H72.72C71.6789 49.8147 69.6304 50.822 67.3788 50.822C62.4778 50.822 59.4559 46.9282 59.4559 42.2303C59.4559 37.5325 62.6809 33.7657 67.2772 33.7657C70.2314 33.7657 72.0428 35.2047 72.847 36.4828H72.9486V34.2312H76.8085V58.4063H76.8169ZM68.1914 47.4615C71.1456 47.4615 72.9232 44.8121 72.9232 42.2896C72.9232 39.7671 71.1456 37.05 68.1914 37.05C65.0764 37.05 63.5612 39.6994 63.5612 42.2219C63.5612 44.7359 65.068 47.4615 68.1914 47.4615ZM94.8975 50.348H91.0714V47.7578H91.0037C90.3012 49.3661 88.3881 50.8135 86.0011 50.8135C81.8026 50.8135 80.0589 47.5885 80.0589 44.3042V34.2312H84.0881V43.1615C84.0881 45.0745 84.5198 47.4531 87.11 47.4531C89.7002 47.4531 90.8683 45.2353 90.8683 43.0937V34.2312H94.8975V50.3395V50.348ZM98.9436 33.8842H102.973V50.0009H98.9436V33.8842ZM118.031 38.7006C117.397 37.7949 116.017 37.1177 114.705 37.1177C111.751 37.1177 110.269 39.7671 110.269 42.2896C110.269 44.8121 111.785 47.4615 114.832 47.4615C116.076 47.4615 117.447 46.9536 118.226 46.0225L120.74 48.5704C119.394 50.0094 117.177 50.822 114.798 50.822C110.032 50.822 106.071 47.6647 106.071 42.2981C106.071 36.9315 109.965 33.7741 114.696 33.7741C117.05 33.7741 119.496 34.7137 120.774 36.2881L118.023 38.7006H118.031ZM122.772 24.9709H126.801V41.0114H126.902L133.014 34.2312H138.186L131.202 41.5193L138.626 50.348H133.293L126.911 42.0864H126.809V50.348H122.78V24.9793L122.772 24.9709ZM144.484 24.9709V36.2881H144.585C145.423 35.247 147.031 33.7741 149.994 33.7741C154.59 33.7741 157.815 37.4647 157.815 42.2388C157.815 47.0129 154.794 50.8305 149.892 50.8305C147.641 50.8305 145.457 49.7893 144.357 47.944H144.289V50.3649H140.463V24.9793H144.492L144.484 24.9709ZM149.08 37.0584C146.126 37.0584 144.348 39.7756 144.348 42.2981C144.348 44.8205 146.126 47.47 149.08 47.47C152.203 47.47 153.71 44.7528 153.71 42.2303C153.71 39.7079 152.203 37.0584 149.08 37.0584ZM168.312 33.7657C173.179 33.7657 177.073 37.16 177.073 42.2303C177.073 47.3007 173.179 50.822 168.312 50.822C163.444 50.822 159.551 47.3007 159.551 42.2303C159.551 37.16 163.444 33.7657 168.312 33.7657ZM168.312 47.4615C171.503 47.4615 172.976 44.7444 172.976 42.2219C172.976 39.6994 171.503 37.05 168.312 37.05C165.12 37.05 163.648 39.6994 163.648 42.2219C163.648 44.7444 165.12 47.4615 168.312 47.4615ZM187.594 33.7657C192.461 33.7657 196.355 37.16 196.355 42.2303C196.355 47.3007 192.461 50.822 187.594 50.822C182.727 50.822 178.833 47.3007 178.833 42.2303C178.833 37.16 182.727 33.7657 187.594 33.7657ZM187.594 47.4615C190.785 47.4615 192.258 44.7444 192.258 42.2219C192.258 39.6994 190.785 37.05 187.594 37.05C184.403 37.05 182.93 39.6994 182.93 42.2219C182.93 44.7359 184.403 47.4615 187.594 47.4615ZM198.793 24.9709H202.822V41.0114H202.924L209.035 34.2312H214.199L207.224 41.5193L214.639 50.348H209.306L202.924 42.0864H202.822V50.348H198.793V24.9793V24.9709ZM225.634 38.5313C224.932 37.5917 223.586 36.7876 222.113 36.7876C220.843 36.7876 219.523 37.2616 219.523 38.5397C219.523 39.8179 220.767 40.1226 223.01 40.6559C225.397 41.2315 228.216 42.2981 228.216 45.4554C228.216 49.383 225.025 50.8305 221.504 50.8305C219.023 50.8305 216.433 49.8909 214.884 48.181L217.534 45.7009C218.406 46.8436 219.921 47.7155 221.664 47.7155C222.841 47.7155 224.255 47.2414 224.255 45.8024C224.255 44.4566 223.01 44.0587 220.564 43.4831C218.177 42.9075 215.798 41.9425 215.798 38.9207C215.798 35.3232 219.023 33.7911 222.215 33.7911C224.526 33.7911 226.946 34.5952 228.258 36.2374L225.651 38.5567L225.634 38.5313ZM103.591 12.24C103.591 16.3284 106.858 19.308 111.014 19.308C115.17 19.308 118.446 16.3284 118.446 12.24V2.86113H114.417V11.766C114.417 13.9668 112.944 15.4481 111.006 15.4481C109.067 15.4481 107.586 13.9753 107.586 11.766V2.86113H103.565L103.591 12.24ZM129.213 6.62792H134.021V18.9863H138.042V6.62792H142.841V2.86113H129.213V6.62792ZM126.606 2.86113H122.585V18.9948H126.606V2.86113ZM87.347 6.62792H92.1549V18.9863H96.1756V6.62792H100.975V2.86113H87.3554V6.62792H87.347ZM66.2361 2.86113H62.2154V18.9948H66.2361V2.86113ZM85.2308 9.60748C85.2308 5.51904 81.955 2.53948 77.7988 2.53948C73.6427 2.53948 70.3668 5.51904 70.3668 9.60748V18.9863H74.3876V10.0815C74.3876 7.88069 75.8604 6.39937 77.7988 6.39937C79.7372 6.39937 81.2101 7.87222 81.2101 10.0815V18.9863H85.2308V9.60748Z" fill="var(--fill-0, black)"/>
</g>
<defs>
<clipPath id="clip0_10380_13893">
<rect width="228.25" height="58.4063" fill="white"/>
</clipPath>
</defs>
</svg>
