<svg preserveAspectRatio="none" width="100%" height="100%" overflow="visible" style="display: block;" viewBox="0 0 38.4416 38.4416" fill="none" xmlns="http://www.w3.org/2000/svg">
<g id="light">
<g id="Vector" filter="url(#filter0_f_10380_13951)">
<path d="M28.0519 19.2197V19.2418C28.0519 19.6414 27.9436 20.0145 27.7567 20.3302L27.7615 20.3214C27.5746 20.6428 27.3072 20.9029 26.989 21.0728L26.9779 21.078C27.0529 21.3746 27.096 21.7146 27.096 22.0664V22.0796V22.0789C27.0909 23.1805 26.7172 24.2444 26.0414 25.0816L26.0462 25.075C25.2913 26.0312 24.324 26.7737 23.2312 27.2358L23.1832 27.2534C22.0473 27.7583 20.7273 28.0519 19.342 28.0519L19.2357 28.0512H19.2413L19.1398 28.0519C17.7566 28.0519 16.4387 27.7583 15.2375 27.2269L15.3042 27.2534C14.199 26.7938 13.2196 26.0491 12.4551 25.0868L12.446 25.075C11.7732 24.2395 11.4015 23.1785 11.397 22.0804V22.0789V22.0752C11.397 21.7293 11.4359 21.3922 11.5088 21.0699L11.5033 21.0993C11.175 20.9298 10.8971 20.6678 10.7002 20.342L10.6953 20.3339C10.4947 20.0018 10.3885 19.6155 10.3896 19.2211C10.3896 18.6493 10.6078 18.1312 10.9614 17.7558C11.1369 17.5625 11.3475 17.4086 11.5805 17.3037C11.8136 17.1987 12.0643 17.1447 12.3175 17.145H12.3523H12.3502H12.3773C12.9324 17.145 13.4326 17.3974 13.7799 17.7993L13.7813 17.8007C15.2752 16.7168 17.0396 16.1281 18.8501 16.1095H18.8557L19.9992 10.6707C20.0191 10.5805 20.0718 10.5022 20.1458 10.4529L20.1472 10.4522C20.1843 10.4245 20.2266 10.4056 20.2711 10.3966C20.3157 10.3875 20.3615 10.3887 20.4057 10.3999L20.4036 10.3992L24.0398 11.2448C24.1607 10.985 24.342 10.7745 24.5657 10.6281L24.572 10.6244C24.7936 10.4772 25.0632 10.3896 25.3522 10.3896C25.7586 10.3896 26.1275 10.5626 26.395 10.8437C26.6625 11.1153 26.8285 11.4972 26.8285 11.9204V11.9469V11.9454V11.9675C26.8285 12.3929 26.6625 12.7771 26.395 13.0508L26.3943 13.0516C26.2574 13.1975 26.0946 13.3132 25.9153 13.392C25.7359 13.4709 25.5436 13.5112 25.3494 13.5108C24.9597 13.5112 24.5857 13.3479 24.3094 13.0567C24.1735 12.9171 24.0656 12.75 23.992 12.5652C23.9183 12.3805 23.8805 12.182 23.8807 11.9815V11.9535V11.955L20.5891 11.1822L19.5643 16.1088C21.4728 16.1235 23.2416 16.7454 24.7103 17.8015L24.6776 17.7794C24.86 17.5778 25.0791 17.4175 25.3216 17.308C25.5641 17.1986 25.825 17.1424 26.0886 17.1428C26.6305 17.1428 27.121 17.3761 27.476 17.7536C27.8296 18.1187 28.0492 18.6287 28.0492 19.1924V19.2211V19.2197H28.0519ZM14.5122 21.2966V21.3201C14.5122 21.744 14.6762 22.1275 14.9408 22.4027C15.0721 22.5481 15.2299 22.6638 15.4046 22.7428C15.5793 22.8217 15.7673 22.8622 15.9572 22.8619H15.9823H15.9809C16.3729 22.8616 16.7487 22.6964 17.0259 22.4028C17.303 22.1092 17.4589 21.7111 17.4593 21.2958V21.2708C17.4593 20.8476 17.2932 20.4657 17.0258 20.1948L17.0251 20.1941C16.8919 20.0501 16.7329 19.9357 16.5574 19.8577C16.3819 19.7797 16.1934 19.7397 16.0031 19.74H15.9795H15.9809C15.5925 19.7435 15.2209 19.9084 14.9462 20.1992C14.6715 20.4901 14.5156 20.8837 14.5122 21.2951V21.2958V21.2966ZM22.494 25.0029C22.5285 24.9676 22.5558 24.9255 22.5745 24.8788C22.5932 24.8321 22.6028 24.782 22.6028 24.7313C22.6028 24.6806 22.5932 24.6304 22.5745 24.5838C22.5558 24.5371 22.5285 24.4949 22.494 24.4597C22.4631 24.4265 22.4262 24.4001 22.3855 24.3821C22.3449 24.3642 22.3012 24.355 22.2571 24.3552H22.2474H22.2481H22.2425C22.1495 24.3551 22.0598 24.3924 21.9917 24.4597C21.6625 24.7846 21.2554 25.0076 20.8149 25.1044L20.7989 25.1074C19.7489 25.3894 18.6487 25.3858 17.6003 25.0971L17.6448 25.1074C17.1972 25.0124 16.7833 24.7877 16.4491 24.4582L16.4505 24.4597C16.3825 24.3923 16.2928 24.3549 16.1997 24.3552H16.1865C16.1425 24.3551 16.0988 24.3643 16.0581 24.3822C16.0175 24.4002 15.9806 24.4265 15.9496 24.4597C15.9147 24.492 15.8868 24.5318 15.8676 24.5765C15.8484 24.6212 15.8385 24.6697 15.8384 24.7188V24.7291C15.8384 24.8365 15.8808 24.9337 15.9496 25.0029C16.2754 25.328 16.6677 25.569 17.0959 25.7072L17.1168 25.7131C17.4977 25.8596 17.8926 25.9617 18.2943 26.0177L18.3242 26.0214C18.6327 26.0528 18.9314 26.0685 19.2204 26.0685C19.5094 26.0685 19.8082 26.0528 20.1166 26.0214C20.5425 25.9633 20.9609 25.8554 21.3644 25.6998L21.3241 25.7138C21.7612 25.5766 22.1621 25.3332 22.4947 25.0029L22.4933 25.0043L22.494 25.0029ZM22.4649 22.8627H22.4885C22.888 22.8627 23.2485 22.6868 23.5042 22.4034L23.5049 22.4027C23.7696 22.1275 23.9335 21.744 23.9335 21.3201V21.2951V21.2966C23.9303 20.8851 23.7746 20.4915 23.5 20.2005C23.2254 19.9095 22.8539 19.7444 22.4656 19.7407H22.4426C22.0425 19.7407 21.6805 19.9144 21.4207 20.1948C21.2834 20.3339 21.1742 20.501 21.0997 20.6861C21.0251 20.8712 20.9869 21.0703 20.9872 21.2715V21.298V21.2966C20.9875 21.7118 21.1434 22.1099 21.4206 22.4035C21.6977 22.6972 22.0736 22.8623 22.4656 22.8627H22.4649Z" fill="url(#paint0_linear_10380_13951)"/>
</g>
<ellipse id="Ellipse 8" cx="18.9093" cy="22.6494" rx="7.27273" ry="4.36364" fill="var(--fill-0, #1E1E1E)"/>
</g>
<defs>
<filter id="filter0_f_10380_13951" x="0" y="0" width="38.4416" height="38.4416" filterUnits="userSpaceOnUse" color-interpolation-filters="sRGB">
<feFlood flood-opacity="0" result="BackgroundImageFix"/>
<feBlend mode="normal" in="SourceGraphic" in2="BackgroundImageFix" result="shape"/>
<feGaussianBlur stdDeviation="5.1948" result="effect1_foregroundBlur_10380_13951"/>
</filter>
<linearGradient id="paint0_linear_10380_13951" x1="26.7596" y1="9.27068" x2="8.97971" y2="22.7537" gradientUnits="userSpaceOnUse">
<stop stop-color="#FFA800"/>
<stop offset="1" stop-color="#FF4500"/>
</linearGradient>
</defs>
</svg>
