<svg preserveAspectRatio="none" width="100%" height="100%" overflow="visible" style="display: block;" viewBox="0 0 19.9662 19.0449" fill="none" xmlns="http://www.w3.org/2000/svg">
<path id="Star background" d="M9.45775 0.350465C9.65211 -0.116822 10.3141 -0.116822 10.5084 0.350466L12.8595 6.00311C12.9414 6.20011 13.1267 6.33471 13.3394 6.35176L19.4419 6.84099C19.9463 6.88144 20.1509 7.511 19.7665 7.84025L15.1171 11.823C14.955 11.9618 14.8843 12.1796 14.9338 12.3871L16.3543 18.3421C16.4717 18.8344 15.9362 19.2235 15.5043 18.9597L10.2797 15.7685C10.0976 15.6573 9.86859 15.6573 9.68651 15.7686L4.46191 18.9597C4.03001 19.2235 3.49447 18.8344 3.6119 18.3421L5.03239 12.3871C5.08189 12.1796 5.01113 11.9618 4.84909 11.823L0.199626 7.84025C-0.184731 7.511 0.0198276 6.88144 0.524303 6.84099L6.62681 6.35176C6.83949 6.33471 7.02475 6.20011 7.10668 6.00311L9.45775 0.350465Z" fill="var(--fill-0, #F2F4F7)"/>
</svg>
