<svg preserveAspectRatio="none" width="100%" height="100%" overflow="visible" style="display: block;" viewBox="0 0 22.7586 22.7586" fill="none" xmlns="http://www.w3.org/2000/svg">
<g id="Star" clip-path="url(#clip0_10380_13971)">
<path id="Star_2" d="M10.854 1.83203C11.0483 1.36474 11.7103 1.36474 11.9046 1.83203L14.2557 7.48468C14.3377 7.68167 14.5229 7.81627 14.7356 7.83332L20.8381 8.32256C21.3426 8.363 21.5471 8.99257 21.1628 9.32181L16.5133 13.3046C16.3513 13.4434 16.2805 13.6612 16.33 13.8687L17.7505 19.8237C17.8679 20.316 17.3324 20.7051 16.9005 20.4413L11.6759 17.2501C11.4938 17.1389 11.2648 17.1389 11.0827 17.2501L5.85814 20.4413C5.42623 20.7051 4.89069 20.316 5.00812 19.8237L6.42861 13.8687C6.47811 13.6612 6.40735 13.4434 6.24532 13.3046L1.59585 9.32181C1.21149 8.99257 1.41605 8.363 1.92053 8.32256L8.02303 7.83332C8.23571 7.81627 8.42097 7.68167 8.5029 7.48468L10.854 1.83203Z" fill="var(--fill-0, #FDB022)"/>
</g>
<defs>
<clipPath id="clip0_10380_13971">
<rect width="22.7586" height="22.7586" fill="white"/>
</clipPath>
</defs>
</svg>
