<svg preserveAspectRatio="none" width="100%" height="100%" overflow="visible" style="display: block;" viewBox="0 0 243.603 41.4063" fill="none" xmlns="http://www.w3.org/2000/svg">
<g id="Group">
<path id="Vector" d="M243.603 26.4496C243.603 23.1129 241.681 21.8685 237.021 20.6851C234.215 19.9958 233.471 19.4407 233.471 18.4586C233.471 17.4765 234.349 16.8238 236.179 16.8238C238.009 16.8238 240.156 17.446 241.95 18.3915L242.535 14.823C240.742 14.0361 238.558 13.5786 236.216 13.5786C232.013 13.5786 229.53 15.738 229.53 18.7514C229.53 21.9905 231.36 23.2349 235.758 24.3207C238.821 25.0405 239.668 25.5285 239.668 26.84C239.668 28.0234 238.491 28.7371 236.442 28.7371C234.124 28.7371 231.677 27.8892 229.756 26.6753L229.201 30.2743C230.927 31.1588 233.636 31.9762 236.277 31.9762C241.029 31.9762 243.603 29.9144 243.603 26.4496Z" fill="var(--fill-0, #116BF2)"/>
<path id="Vector_2" d="M227.005 31.6103V13.8288H222.68V25.9068C221.277 27.2732 219.764 28.1882 218.233 28.1882C216.476 28.1882 215.762 27.1085 215.762 25.5469V13.8288H211.438V26.6876C211.438 29.9816 213.268 31.9702 216.751 31.9702C219.197 31.9702 221.191 30.7075 222.918 29.1398L223.534 31.6103H226.993H227.005Z" fill="var(--fill-0, #116BF2)"/>
<path id="Vector_3" d="M208.894 31.6103V13.8288H204.624V31.6103H208.894Z" fill="var(--fill-0, #116BF2)"/>
<path id="Vector_4" d="M206.771 6.0574C208.205 6.0574 209.327 7.1005 209.327 8.534C209.327 9.9675 208.205 11.0106 206.771 11.0106C205.338 11.0106 204.173 9.9675 204.173 8.534C204.173 7.1005 205.338 6.0574 206.771 6.0574Z" fill="var(--fill-0, #116BF2)"/>
<path id="Vector_5" d="M197.792 25.681C196.523 27.2121 195.151 28.1881 193.394 28.1881C191.241 28.1881 189.642 26.5228 189.642 23.0336C189.642 19.1235 191.497 17.2325 194.04 17.2325C195.669 17.2325 196.615 17.4948 197.792 18.0133V25.681ZM202.062 31.6102V5.18502L197.792 5.92312V14.4936C196.651 14.1032 195.218 13.8043 193.455 13.8043C189.154 13.8043 185.342 16.7384 185.342 23.2898C185.342 29.219 188.471 31.964 192.351 31.964C194.925 31.964 196.718 30.6586 198.054 29.158L198.426 31.6041H202.068L202.062 31.6102Z" fill="var(--fill-0, #116BF2)"/>
<path id="Vector_6" d="M179.303 26.7546C177.936 27.9929 176.369 28.7432 174.74 28.7432C173.239 28.7432 172.33 27.9258 172.33 26.657C172.33 24.9612 173.666 23.4301 179.303 22.8079V26.7485V26.7546ZM183.542 31.6102V19.5139C183.542 15.3415 181.261 13.6457 176.57 13.6457C173.672 13.6457 171.482 14.2313 169.335 15.0792L169.86 18.4647C171.848 17.6473 173.898 17.0617 176.051 17.0617C178.205 17.0617 179.309 17.7754 179.309 19.703V20.2581C171.745 20.9718 168.097 22.8018 168.097 27.0718C168.097 30.134 170.214 31.964 173.38 31.964C176.118 31.964 178.04 30.7867 179.571 29.3227L179.961 31.6041H183.542V31.6163V31.6102Z" fill="var(--fill-0, #116BF2)"/>
<path id="Vector_7" d="M167.389 30.9942L160.576 21.6673C163.675 20.6913 165.694 18.5197 165.694 15.061C165.694 10.4982 162.4 7.89956 156.958 7.89956H149.462V31.6103H153.896V22.4725H156.05L162.699 31.836L167.389 30.9942ZM161.259 15.3111C161.259 17.7877 159.405 19.1419 156.367 19.1419H153.86V11.6084H156.629C159.661 11.6084 161.259 12.9321 161.259 15.3111Z" fill="var(--fill-0, #116BF2)"/>
<path id="Vector_8" d="M147.223 31.6102L146.698 28.06C146.271 28.1576 145.722 28.1881 145.167 28.1881C143.41 28.1881 142.721 27.4073 142.721 25.9677V17.2874H147.223L146.485 13.8287H142.721V7.65549L138.518 8.39969V13.8287H135.627V17.2874H138.518V26.6875C138.518 30.6647 140.867 31.903 144.386 31.903C145.692 31.903 146.54 31.7749 147.223 31.6102Z" fill="var(--fill-0, #116BF2)"/>
<path id="Vector_9" d="M134.724 26.4496C134.724 23.1129 132.803 21.8685 128.142 20.6851C125.336 19.9958 124.592 19.4407 124.592 18.4586C124.592 17.4765 125.47 16.8238 127.3 16.8238C129.13 16.8238 131.278 17.446 133.071 18.3915L133.657 14.823C131.863 14.0361 129.679 13.5786 127.337 13.5786C123.134 13.5786 120.651 15.738 120.651 18.7514C120.651 21.9905 122.481 23.2349 126.879 24.3207C129.942 25.0405 130.79 25.5285 130.79 26.84C130.79 28.0234 129.612 28.7371 127.563 28.7371C125.245 28.7371 122.866 27.877 120.944 26.6692L120.316 30.2804C122.042 31.1649 124.763 31.9823 127.404 31.9823C132.168 31.9823 134.724 29.9205 134.724 26.4496Z" fill="var(--fill-0, #116BF2)"/>
<path id="Vector_10" d="M118.34 31.6103V13.8288H114.015V25.9068C112.612 27.2732 111.099 28.1882 109.568 28.1882C107.811 28.1882 107.097 27.1085 107.097 25.5469V13.8288H102.772V26.6876C102.772 29.9816 104.602 31.9702 108.085 31.9702C110.532 31.9702 112.526 30.7075 114.253 29.1398L114.869 31.6103H118.327H118.34Z" fill="var(--fill-0, #116BF2)"/>
<path id="Vector_11" d="M100.808 17.7815L99.8199 13.5847C97.1054 14.0788 95.4645 15.5123 94.2262 17.5314L93.3966 13.8348H90.188V31.6163H94.3848V21.4903C95.6902 19.5688 97.9045 17.9462 100.808 17.7876V17.7815Z" fill="var(--fill-0, #116BF2)"/>
<path id="Vector_12" d="M92.9024 11.8524L91.9142 7.89956H70.9241V11.8524H78.8297V31.6103H83.2766V11.8524H92.9085H92.9024Z" fill="var(--fill-0, #116BF2)"/>
<path id="Vector_13" d="M51.1662 19.2639V7.41156L58.6326 7.47256C58.9071 7.74706 59.0657 8.13136 59.0657 8.52176V18.1598C59.0657 18.5563 58.9071 18.9284 58.6326 19.209L51.1662 19.2761V19.2639Z" fill="var(--fill-0, #116BF2)"/>
<path id="Vector_14" d="M27.0224 7.46647H19.556V33.5867C19.556 33.9832 19.7146 34.3553 19.9891 34.6359L26.6137 41.2605C26.9248 41.5716 27.4555 41.352 27.4555 40.9128V8.50958C27.4555 8.12528 27.2969 7.74097 27.0224 7.46647Z" fill="var(--fill-0, #116BF2)"/>
<path id="Vector_15" d="M39.3139 23.7108V7.46647H31.8414C31.5669 7.74097 31.4144 8.11308 31.4144 8.49738V40.9128C31.4144 41.3459 31.9451 41.5655 32.2562 41.2544L38.8808 34.6298C39.1553 34.3553 39.3139 33.9771 39.3139 33.5806V23.7047V23.7108Z" fill="var(--fill-0, #116BF2)"/>
<path id="Vector_16" d="M39.314 23.7107L44.1086 18.9161C44.2001 18.8246 44.3221 18.7758 44.4502 18.7758H45.2371L51.6604 26.1873L64.1532 38.6801C64.4643 38.9912 64.2447 39.5219 63.8055 39.5219H55.7352C55.3448 39.5219 54.9666 39.3694 54.6921 39.0949H54.6799L39.314 23.7168V23.7107Z" fill="var(--fill-0, #116BF2)"/>
<path id="Vector_17" d="M19.9891 0.433139C19.7146 0.158639 19.3303 3.8599e-05 18.9399 3.8599e-05H0.493538C0.0543381 3.8599e-05 -0.165262 0.530739 0.145838 0.841839L6.77044 7.46644C7.04494 7.74094 7.42924 7.89954 7.81964 7.89954H26.4734C27.0163 7.89954 27.4616 8.34484 27.4616 8.88774V8.50954C27.4616 8.11304 27.303 7.74094 27.0285 7.46034L19.9891 0.433139Z" fill="var(--fill-0, #21B1FF)"/>
<path id="Vector_18" d="M38.8747 0.4331C39.1492 0.1586 39.5335 0 39.9239 0H50.5501C50.9466 0 51.3187 0.1586 51.5993 0.4331L58.6326 7.4664C58.9071 7.7409 59.0657 8.1252 59.0657 8.5156V8.8938C59.0657 8.3509 58.6204 7.9056 58.0775 7.9056H32.3965C31.8536 7.9056 31.4083 8.3509 31.4083 8.8938V8.5156C31.4083 8.1191 31.5669 7.747 31.8414 7.4664L38.8747 0.4331Z" fill="var(--fill-0, #21B1FF)"/>
<path id="Vector_19" d="M59.0718 17.7816C59.0718 18.3245 58.6265 18.7698 58.0836 18.7698H44.8527C44.6331 18.7698 44.5233 19.0382 44.6819 19.1907L51.6664 26.1813L58.6387 19.209C58.9132 18.9345 59.0718 18.5502 59.0718 18.1598V17.7816Z" fill="var(--fill-0, #21B1FF)"/>
</g>
</svg>
