<svg preserveAspectRatio="none" width="100%" height="100%" overflow="visible" style="display: block;" viewBox="0 0 126.139 89.9998" fill="none" xmlns="http://www.w3.org/2000/svg">
<g id="Zendesk_logo 1" clip-path="url(#clip0_10380_13887)">
<path id="Vector" d="M60.4007 14.0733V53.291H27.9173L60.4007 14.0733ZM60.4007 0C60.4007 4.30756 58.6895 8.43869 55.6436 11.4846C52.5977 14.5305 48.4666 16.2417 44.159 16.2417C39.8514 16.2417 35.7203 14.5305 32.6744 11.4846C29.6285 8.43869 27.9173 4.30756 27.9173 0L60.4007 0ZM65.752 53.2945C65.752 48.9869 67.4632 44.8558 70.5091 41.8099C73.555 38.764 77.6861 37.0528 81.9937 37.0528C86.3012 37.0528 90.4324 38.764 93.4783 41.8099C96.5242 44.8558 98.2353 48.9869 98.2353 53.2945H65.752ZM65.752 39.2212V0H98.2423L65.752 39.2177V39.2212ZM83.9188 86.8481C85.5893 86.8855 87.2068 86.2609 88.4188 85.1107L90.6496 87.5188C89.1763 89.0338 87.133 90.1597 83.957 90.1597C78.5118 90.1597 74.9918 86.5458 74.9918 81.6601C74.9697 80.5403 75.1734 79.4276 75.5907 78.3883C76.008 77.3489 76.6304 76.4043 77.4207 75.6107C78.2111 74.8172 79.1531 74.1909 80.1907 73.7694C81.2283 73.3478 82.3402 73.1395 83.4601 73.157C88.867 73.157 91.9319 77.2713 91.6608 82.9771H78.8802C79.3319 85.3469 80.9999 86.8585 83.9083 86.8585M87.8002 80.2562C87.4527 78.0427 86.1323 76.413 83.4914 76.413C81.0346 76.413 79.3215 77.8029 78.8802 80.2562H87.8037H87.8002ZM0 86.6639L9.83396 76.6701H0.232818V73.5358H14.3965V76.7327L4.56254 86.723H14.5355V89.8608H0V86.6639ZM25.5752 86.8446C27.2457 86.882 28.8633 86.2574 30.0752 85.1072L32.3061 87.5153C30.8328 89.0303 28.7895 90.1562 25.6135 90.1562C20.1683 90.1562 16.6482 86.5423 16.6482 81.6566C16.6262 80.5368 16.8299 79.4241 17.2472 78.3848C17.6645 77.3455 18.2869 76.4008 19.0772 75.6073C19.8675 74.8137 20.8096 74.1875 21.8472 73.7659C22.8848 73.3443 23.9967 73.1361 25.1166 73.1535C30.5235 73.1535 33.5884 77.2678 33.3173 82.9736H20.5436C20.9953 85.3435 22.6633 86.8551 25.5718 86.8551M29.4637 80.2527C29.1162 78.0392 27.7957 76.4095 25.1548 76.4095C22.698 76.4095 20.9849 77.7995 20.5436 80.2527H29.4671H29.4637ZM54.5628 81.6531C54.5628 76.4408 58.4651 73.1605 62.7636 73.1605C63.795 73.1468 64.8169 73.359 65.7576 73.7822C66.6982 74.2054 67.5349 74.8293 68.2088 75.6103V65.9779H71.6837V89.8157H68.2088V87.5674C67.5478 88.3804 66.7124 89.0343 65.7644 89.4807C64.8164 89.927 63.7801 90.1543 62.7323 90.1458C58.5624 90.1458 54.5663 86.8446 54.5663 81.6566M68.4034 81.6219C68.376 80.6027 68.0488 79.6142 67.4626 78.78C66.8764 77.9458 66.0572 77.303 65.1076 76.9319C64.158 76.5608 63.12 76.478 62.1236 76.6937C61.1271 76.9095 60.2164 77.4142 59.5053 78.1449C58.7942 78.8755 58.3143 79.7996 58.1256 80.8016C57.937 81.8035 58.048 82.8389 58.4446 83.7781C58.8413 84.7173 59.5062 85.5187 60.3559 86.0821C61.2057 86.6454 62.2027 86.9457 63.2223 86.9454C66.2107 86.9454 68.3999 84.5616 68.3999 81.6219M93.9334 86.3477L97.0817 84.7145C97.4979 85.4565 98.1089 86.0707 98.8486 86.4908C99.5884 86.9109 100.429 87.121 101.279 87.0983C103.246 87.0983 104.268 86.0906 104.268 84.9439C104.268 83.6373 102.367 83.3454 100.299 82.918C97.5195 82.3273 94.6249 81.4134 94.6249 78.0531C94.6249 75.4713 97.0817 73.084 100.949 73.1188C103.997 73.1188 106.266 74.3281 107.552 76.2809L104.633 77.8794C104.229 77.2821 103.68 76.7976 103.038 76.4717C102.395 76.1458 101.68 75.9892 100.96 76.0168C99.0902 76.0168 98.138 76.9307 98.138 77.9767C98.138 79.1512 99.6461 79.4778 102.009 80.0026C104.699 80.5933 107.743 81.4724 107.743 84.8674C107.743 87.1191 105.776 90.1562 101.12 90.1249C97.7141 90.1249 95.3164 88.7524 93.9369 86.3373M117.184 82.5601L114.428 85.5659V89.8052H110.953V65.9674H114.428V81.5802L121.806 73.4837H126.038L119.644 80.4682L126.205 89.8087H122.271L117.187 82.5601H117.184ZM44.0617 73.157C39.9266 73.157 36.469 75.8327 36.469 80.2805V89.8191H40.0134V80.7219C40.0134 78.0462 41.5528 76.4408 44.1833 76.4408C46.8138 76.4408 48.1204 78.0392 48.1204 80.7219V89.8191H51.6439V80.2805C51.6439 75.8396 48.169 73.157 44.0513 73.157" fill="var(--fill-0, #03363D)"/>
</g>
<defs>
<clipPath id="clip0_10380_13887">
<rect width="126.139" height="89.9998" fill="white"/>
</clipPath>
</defs>
</svg>
